%TF.GenerationSoftware,KiCad,Pcbnew,(5.99.0-10209-gdc0cf3b802)*%
%TF.CreationDate,2021-04-10T19:11:07+02:00*%
%TF.ProjectId,BUCK_LMR33630,4255434b-5f4c-44d5-9233-333633302e6b,rev?*%
%TF.SameCoordinates,Original*%
%TF.FileFunction,Legend,Bot*%
%TF.FilePolarity,Positive*%
%FSLAX46Y46*%
G04 Gerber Fmt 4.6, Leading zero omitted, Abs format (unit mm)*
G04 Created by KiCad (PCBNEW (5.99.0-10209-gdc0cf3b802)) date 2021-04-10 19:11:07*
%MOMM*%
%LPD*%
G01*
G04 APERTURE LIST*
%ADD10C,0.150000*%
G04 APERTURE END LIST*
D10*
X105657142Y-74404761D02*
X105704761Y-74357142D01*
X105752380Y-74214285D01*
X105752380Y-74119047D01*
X105704761Y-73976190D01*
X105609523Y-73880952D01*
X105514285Y-73833333D01*
X105323809Y-73785714D01*
X105180952Y-73785714D01*
X104990476Y-73833333D01*
X104895238Y-73880952D01*
X104800000Y-73976190D01*
X104752380Y-74119047D01*
X104752380Y-74214285D01*
X104800000Y-74357142D01*
X104847619Y-74404761D01*
X105228571Y-74833333D02*
X105228571Y-75166666D01*
X105752380Y-75309523D02*
X105752380Y-74833333D01*
X104752380Y-74833333D01*
X104752380Y-75309523D01*
X105752380Y-76309523D02*
X105276190Y-75976190D01*
X105752380Y-75738095D02*
X104752380Y-75738095D01*
X104752380Y-76119047D01*
X104800000Y-76214285D01*
X104847619Y-76261904D01*
X104942857Y-76309523D01*
X105085714Y-76309523D01*
X105180952Y-76261904D01*
X105228571Y-76214285D01*
X105276190Y-76119047D01*
X105276190Y-75738095D01*
X105752380Y-76738095D02*
X104752380Y-76738095D01*
X105752380Y-77309523D01*
X104752380Y-77309523D01*
X105371428Y-77785714D02*
X105371428Y-78547619D01*
X104752380Y-79214285D02*
X104752380Y-79404761D01*
X104800000Y-79500000D01*
X104895238Y-79595238D01*
X105085714Y-79642857D01*
X105419047Y-79642857D01*
X105609523Y-79595238D01*
X105704761Y-79500000D01*
X105752380Y-79404761D01*
X105752380Y-79214285D01*
X105704761Y-79119047D01*
X105609523Y-79023809D01*
X105419047Y-78976190D01*
X105085714Y-78976190D01*
X104895238Y-79023809D01*
X104800000Y-79119047D01*
X104752380Y-79214285D01*
X105752380Y-80071428D02*
X104752380Y-80071428D01*
X105228571Y-80071428D02*
X105228571Y-80642857D01*
X105752380Y-80642857D02*
X104752380Y-80642857D01*
X105752380Y-81595238D02*
X105752380Y-81119047D01*
X104752380Y-81119047D01*
X105371428Y-81928571D02*
X105371428Y-82690476D01*
X105752380Y-83166666D02*
X104752380Y-83166666D01*
X104752380Y-83547619D01*
X104800000Y-83642857D01*
X104847619Y-83690476D01*
X104942857Y-83738095D01*
X105085714Y-83738095D01*
X105180952Y-83690476D01*
X105228571Y-83642857D01*
X105276190Y-83547619D01*
X105276190Y-83166666D01*
X105085714Y-84833333D02*
X105752380Y-85071428D01*
X105085714Y-85309523D01*
X104847619Y-85642857D02*
X104800000Y-85690476D01*
X104752380Y-85785714D01*
X104752380Y-86023809D01*
X104800000Y-86119047D01*
X104847619Y-86166666D01*
X104942857Y-86214285D01*
X105038095Y-86214285D01*
X105180952Y-86166666D01*
X105752380Y-85595238D01*
X105752380Y-86214285D01*
X102900000Y-71657142D02*
X102852380Y-71561904D01*
X102852380Y-71419047D01*
X102900000Y-71276190D01*
X102995238Y-71180952D01*
X103090476Y-71133333D01*
X103280952Y-71085714D01*
X103423809Y-71085714D01*
X103614285Y-71133333D01*
X103709523Y-71180952D01*
X103804761Y-71276190D01*
X103852380Y-71419047D01*
X103852380Y-71514285D01*
X103804761Y-71657142D01*
X103757142Y-71704761D01*
X103423809Y-71704761D01*
X103423809Y-71514285D01*
X103852380Y-72133333D02*
X102852380Y-72133333D01*
X102852380Y-72466666D02*
X102852380Y-73038095D01*
X103852380Y-72752380D02*
X102852380Y-72752380D01*
X103852380Y-73371428D02*
X102852380Y-73371428D01*
X103328571Y-73371428D02*
X103328571Y-73942857D01*
X103852380Y-73942857D02*
X102852380Y-73942857D01*
X102852380Y-74419047D02*
X103661904Y-74419047D01*
X103757142Y-74466666D01*
X103804761Y-74514285D01*
X103852380Y-74609523D01*
X103852380Y-74800000D01*
X103804761Y-74895238D01*
X103757142Y-74942857D01*
X103661904Y-74990476D01*
X102852380Y-74990476D01*
X103328571Y-75800000D02*
X103376190Y-75942857D01*
X103423809Y-75990476D01*
X103519047Y-76038095D01*
X103661904Y-76038095D01*
X103757142Y-75990476D01*
X103804761Y-75942857D01*
X103852380Y-75847619D01*
X103852380Y-75466666D01*
X102852380Y-75466666D01*
X102852380Y-75800000D01*
X102900000Y-75895238D01*
X102947619Y-75942857D01*
X103042857Y-75990476D01*
X103138095Y-75990476D01*
X103233333Y-75942857D01*
X103280952Y-75895238D01*
X103328571Y-75800000D01*
X103328571Y-75466666D01*
X103757142Y-76466666D02*
X103804761Y-76514285D01*
X103852380Y-76466666D01*
X103804761Y-76419047D01*
X103757142Y-76466666D01*
X103852380Y-76466666D01*
X103757142Y-77514285D02*
X103804761Y-77466666D01*
X103852380Y-77323809D01*
X103852380Y-77228571D01*
X103804761Y-77085714D01*
X103709523Y-76990476D01*
X103614285Y-76942857D01*
X103423809Y-76895238D01*
X103280952Y-76895238D01*
X103090476Y-76942857D01*
X102995238Y-76990476D01*
X102900000Y-77085714D01*
X102852380Y-77228571D01*
X102852380Y-77323809D01*
X102900000Y-77466666D01*
X102947619Y-77514285D01*
X102852380Y-78133333D02*
X102852380Y-78323809D01*
X102900000Y-78419047D01*
X102995238Y-78514285D01*
X103185714Y-78561904D01*
X103519047Y-78561904D01*
X103709523Y-78514285D01*
X103804761Y-78419047D01*
X103852380Y-78323809D01*
X103852380Y-78133333D01*
X103804761Y-78038095D01*
X103709523Y-77942857D01*
X103519047Y-77895238D01*
X103185714Y-77895238D01*
X102995238Y-77942857D01*
X102900000Y-78038095D01*
X102852380Y-78133333D01*
X103852380Y-78990476D02*
X102852380Y-78990476D01*
X103566666Y-79323809D01*
X102852380Y-79657142D01*
X103852380Y-79657142D01*
X102804761Y-80847619D02*
X104090476Y-79990476D01*
X102852380Y-81085714D02*
X102852380Y-81752380D01*
X103852380Y-81085714D01*
X103852380Y-81752380D01*
X103328571Y-82133333D02*
X103328571Y-82466666D01*
X103852380Y-82609523D02*
X103852380Y-82133333D01*
X102852380Y-82133333D01*
X102852380Y-82609523D01*
X103852380Y-83609523D02*
X103376190Y-83276190D01*
X103852380Y-83038095D02*
X102852380Y-83038095D01*
X102852380Y-83419047D01*
X102900000Y-83514285D01*
X102947619Y-83561904D01*
X103042857Y-83609523D01*
X103185714Y-83609523D01*
X103280952Y-83561904D01*
X103328571Y-83514285D01*
X103376190Y-83419047D01*
X103376190Y-83038095D01*
X103328571Y-84371428D02*
X103376190Y-84514285D01*
X103423809Y-84561904D01*
X103519047Y-84609523D01*
X103661904Y-84609523D01*
X103757142Y-84561904D01*
X103804761Y-84514285D01*
X103852380Y-84419047D01*
X103852380Y-84038095D01*
X102852380Y-84038095D01*
X102852380Y-84371428D01*
X102900000Y-84466666D01*
X102947619Y-84514285D01*
X103042857Y-84561904D01*
X103138095Y-84561904D01*
X103233333Y-84514285D01*
X103280952Y-84466666D01*
X103328571Y-84371428D01*
X103328571Y-84038095D01*
X103328571Y-85038095D02*
X103328571Y-85371428D01*
X103852380Y-85514285D02*
X103852380Y-85038095D01*
X102852380Y-85038095D01*
X102852380Y-85514285D01*
X103852380Y-86514285D02*
X103376190Y-86180952D01*
X103852380Y-85942857D02*
X102852380Y-85942857D01*
X102852380Y-86323809D01*
X102900000Y-86419047D01*
X102947619Y-86466666D01*
X103042857Y-86514285D01*
X103185714Y-86514285D01*
X103280952Y-86466666D01*
X103328571Y-86419047D01*
X103376190Y-86323809D01*
X103376190Y-85942857D01*
X103852380Y-87514285D02*
X103376190Y-87180952D01*
X103852380Y-86942857D02*
X102852380Y-86942857D01*
X102852380Y-87323809D01*
X102900000Y-87419047D01*
X102947619Y-87466666D01*
X103042857Y-87514285D01*
X103185714Y-87514285D01*
X103280952Y-87466666D01*
X103328571Y-87419047D01*
X103376190Y-87323809D01*
X103376190Y-86942857D01*
X102852380Y-88133333D02*
X102852380Y-88323809D01*
X102900000Y-88419047D01*
X102995238Y-88514285D01*
X103185714Y-88561904D01*
X103519047Y-88561904D01*
X103709523Y-88514285D01*
X103804761Y-88419047D01*
X103852380Y-88323809D01*
X103852380Y-88133333D01*
X103804761Y-88038095D01*
X103709523Y-87942857D01*
X103519047Y-87895238D01*
X103185714Y-87895238D01*
X102995238Y-87942857D01*
X102900000Y-88038095D01*
X102852380Y-88133333D01*
X103804761Y-88942857D02*
X103852380Y-89085714D01*
X103852380Y-89323809D01*
X103804761Y-89419047D01*
X103757142Y-89466666D01*
X103661904Y-89514285D01*
X103566666Y-89514285D01*
X103471428Y-89466666D01*
X103423809Y-89419047D01*
X103376190Y-89323809D01*
X103328571Y-89133333D01*
X103280952Y-89038095D01*
X103233333Y-88990476D01*
X103138095Y-88942857D01*
X103042857Y-88942857D01*
X102947619Y-88990476D01*
X102900000Y-89038095D01*
X102852380Y-89133333D01*
X102852380Y-89371428D01*
X102900000Y-89514285D01*
X101952380Y-72380952D02*
X101952380Y-71904761D01*
X100952380Y-71904761D01*
X101952380Y-72714285D02*
X100952380Y-72714285D01*
X101666666Y-73047619D01*
X100952380Y-73380952D01*
X101952380Y-73380952D01*
X101952380Y-74428571D02*
X101476190Y-74095238D01*
X101952380Y-73857142D02*
X100952380Y-73857142D01*
X100952380Y-74238095D01*
X101000000Y-74333333D01*
X101047619Y-74380952D01*
X101142857Y-74428571D01*
X101285714Y-74428571D01*
X101380952Y-74380952D01*
X101428571Y-74333333D01*
X101476190Y-74238095D01*
X101476190Y-73857142D01*
X100952380Y-74761904D02*
X100952380Y-75380952D01*
X101333333Y-75047619D01*
X101333333Y-75190476D01*
X101380952Y-75285714D01*
X101428571Y-75333333D01*
X101523809Y-75380952D01*
X101761904Y-75380952D01*
X101857142Y-75333333D01*
X101904761Y-75285714D01*
X101952380Y-75190476D01*
X101952380Y-74904761D01*
X101904761Y-74809523D01*
X101857142Y-74761904D01*
X100952380Y-75714285D02*
X100952380Y-76333333D01*
X101333333Y-76000000D01*
X101333333Y-76142857D01*
X101380952Y-76238095D01*
X101428571Y-76285714D01*
X101523809Y-76333333D01*
X101761904Y-76333333D01*
X101857142Y-76285714D01*
X101904761Y-76238095D01*
X101952380Y-76142857D01*
X101952380Y-75857142D01*
X101904761Y-75761904D01*
X101857142Y-75714285D01*
X100952380Y-77190476D02*
X100952380Y-77000000D01*
X101000000Y-76904761D01*
X101047619Y-76857142D01*
X101190476Y-76761904D01*
X101380952Y-76714285D01*
X101761904Y-76714285D01*
X101857142Y-76761904D01*
X101904761Y-76809523D01*
X101952380Y-76904761D01*
X101952380Y-77095238D01*
X101904761Y-77190476D01*
X101857142Y-77238095D01*
X101761904Y-77285714D01*
X101523809Y-77285714D01*
X101428571Y-77238095D01*
X101380952Y-77190476D01*
X101333333Y-77095238D01*
X101333333Y-76904761D01*
X101380952Y-76809523D01*
X101428571Y-76761904D01*
X101523809Y-76714285D01*
X100952380Y-77619047D02*
X100952380Y-78238095D01*
X101333333Y-77904761D01*
X101333333Y-78047619D01*
X101380952Y-78142857D01*
X101428571Y-78190476D01*
X101523809Y-78238095D01*
X101761904Y-78238095D01*
X101857142Y-78190476D01*
X101904761Y-78142857D01*
X101952380Y-78047619D01*
X101952380Y-77761904D01*
X101904761Y-77666666D01*
X101857142Y-77619047D01*
X100952380Y-78857142D02*
X100952380Y-78952380D01*
X101000000Y-79047619D01*
X101047619Y-79095238D01*
X101142857Y-79142857D01*
X101333333Y-79190476D01*
X101571428Y-79190476D01*
X101761904Y-79142857D01*
X101857142Y-79095238D01*
X101904761Y-79047619D01*
X101952380Y-78952380D01*
X101952380Y-78857142D01*
X101904761Y-78761904D01*
X101857142Y-78714285D01*
X101761904Y-78666666D01*
X101571428Y-78619047D01*
X101333333Y-78619047D01*
X101142857Y-78666666D01*
X101047619Y-78714285D01*
X101000000Y-78761904D01*
X100952380Y-78857142D01*
X101428571Y-80714285D02*
X101476190Y-80857142D01*
X101523809Y-80904761D01*
X101619047Y-80952380D01*
X101761904Y-80952380D01*
X101857142Y-80904761D01*
X101904761Y-80857142D01*
X101952380Y-80761904D01*
X101952380Y-80380952D01*
X100952380Y-80380952D01*
X100952380Y-80714285D01*
X101000000Y-80809523D01*
X101047619Y-80857142D01*
X101142857Y-80904761D01*
X101238095Y-80904761D01*
X101333333Y-80857142D01*
X101380952Y-80809523D01*
X101428571Y-80714285D01*
X101428571Y-80380952D01*
X100952380Y-81380952D02*
X101761904Y-81380952D01*
X101857142Y-81428571D01*
X101904761Y-81476190D01*
X101952380Y-81571428D01*
X101952380Y-81761904D01*
X101904761Y-81857142D01*
X101857142Y-81904761D01*
X101761904Y-81952380D01*
X100952380Y-81952380D01*
X101857142Y-83000000D02*
X101904761Y-82952380D01*
X101952380Y-82809523D01*
X101952380Y-82714285D01*
X101904761Y-82571428D01*
X101809523Y-82476190D01*
X101714285Y-82428571D01*
X101523809Y-82380952D01*
X101380952Y-82380952D01*
X101190476Y-82428571D01*
X101095238Y-82476190D01*
X101000000Y-82571428D01*
X100952380Y-82714285D01*
X100952380Y-82809523D01*
X101000000Y-82952380D01*
X101047619Y-83000000D01*
X101952380Y-83428571D02*
X100952380Y-83428571D01*
X101952380Y-84000000D02*
X101380952Y-83571428D01*
X100952380Y-84000000D02*
X101523809Y-83428571D01*
X101952380Y-85761904D02*
X101476190Y-85428571D01*
X101952380Y-85190476D02*
X100952380Y-85190476D01*
X100952380Y-85571428D01*
X101000000Y-85666666D01*
X101047619Y-85714285D01*
X101142857Y-85761904D01*
X101285714Y-85761904D01*
X101380952Y-85714285D01*
X101428571Y-85666666D01*
X101476190Y-85571428D01*
X101476190Y-85190476D01*
X101428571Y-86190476D02*
X101428571Y-86523809D01*
X101952380Y-86666666D02*
X101952380Y-86190476D01*
X100952380Y-86190476D01*
X100952380Y-86666666D01*
X101000000Y-87619047D02*
X100952380Y-87523809D01*
X100952380Y-87380952D01*
X101000000Y-87238095D01*
X101095238Y-87142857D01*
X101190476Y-87095238D01*
X101380952Y-87047619D01*
X101523809Y-87047619D01*
X101714285Y-87095238D01*
X101809523Y-87142857D01*
X101904761Y-87238095D01*
X101952380Y-87380952D01*
X101952380Y-87476190D01*
X101904761Y-87619047D01*
X101857142Y-87666666D01*
X101523809Y-87666666D01*
X101523809Y-87476190D01*
X101857142Y-88095238D02*
X101904761Y-88142857D01*
X101952380Y-88095238D01*
X101904761Y-88047619D01*
X101857142Y-88095238D01*
X101952380Y-88095238D01*
X124338095Y-98252380D02*
X123719047Y-98252380D01*
X124052380Y-98633333D01*
X123909523Y-98633333D01*
X123814285Y-98680952D01*
X123766666Y-98728571D01*
X123719047Y-98823809D01*
X123719047Y-99061904D01*
X123766666Y-99157142D01*
X123814285Y-99204761D01*
X123909523Y-99252380D01*
X124195238Y-99252380D01*
X124290476Y-99204761D01*
X124338095Y-99157142D01*
X123290476Y-99157142D02*
X123242857Y-99204761D01*
X123290476Y-99252380D01*
X123338095Y-99204761D01*
X123290476Y-99157142D01*
X123290476Y-99252380D01*
X122671428Y-98680952D02*
X122766666Y-98633333D01*
X122814285Y-98585714D01*
X122861904Y-98490476D01*
X122861904Y-98442857D01*
X122814285Y-98347619D01*
X122766666Y-98300000D01*
X122671428Y-98252380D01*
X122480952Y-98252380D01*
X122385714Y-98300000D01*
X122338095Y-98347619D01*
X122290476Y-98442857D01*
X122290476Y-98490476D01*
X122338095Y-98585714D01*
X122385714Y-98633333D01*
X122480952Y-98680952D01*
X122671428Y-98680952D01*
X122766666Y-98728571D01*
X122814285Y-98776190D01*
X122861904Y-98871428D01*
X122861904Y-99061904D01*
X122814285Y-99157142D01*
X122766666Y-99204761D01*
X122671428Y-99252380D01*
X122480952Y-99252380D01*
X122385714Y-99204761D01*
X122338095Y-99157142D01*
X122290476Y-99061904D01*
X122290476Y-98871428D01*
X122338095Y-98776190D01*
X122385714Y-98728571D01*
X122480952Y-98680952D01*
X122004761Y-98252380D02*
X121671428Y-99252380D01*
X121338095Y-98252380D01*
X120242857Y-98871428D02*
X119480952Y-98871428D01*
X118338095Y-98252380D02*
X117719047Y-98252380D01*
X118052380Y-98633333D01*
X117909523Y-98633333D01*
X117814285Y-98680952D01*
X117766666Y-98728571D01*
X117719047Y-98823809D01*
X117719047Y-99061904D01*
X117766666Y-99157142D01*
X117814285Y-99204761D01*
X117909523Y-99252380D01*
X118195238Y-99252380D01*
X118290476Y-99204761D01*
X118338095Y-99157142D01*
X116861904Y-98252380D02*
X117052380Y-98252380D01*
X117147619Y-98300000D01*
X117195238Y-98347619D01*
X117290476Y-98490476D01*
X117338095Y-98680952D01*
X117338095Y-99061904D01*
X117290476Y-99157142D01*
X117242857Y-99204761D01*
X117147619Y-99252380D01*
X116957142Y-99252380D01*
X116861904Y-99204761D01*
X116814285Y-99157142D01*
X116766666Y-99061904D01*
X116766666Y-98823809D01*
X116814285Y-98728571D01*
X116861904Y-98680952D01*
X116957142Y-98633333D01*
X117147619Y-98633333D01*
X117242857Y-98680952D01*
X117290476Y-98728571D01*
X117338095Y-98823809D01*
X116480952Y-98252380D02*
X116147619Y-99252380D01*
X115814285Y-98252380D01*
M02*
