%TF.GenerationSoftware,KiCad,Pcbnew,(5.99.0-10209-gdc0cf3b802)*%
%TF.CreationDate,2021-04-10T19:11:07+02:00*%
%TF.ProjectId,BUCK_LMR33630,4255434b-5f4c-44d5-9233-333633302e6b,rev?*%
%TF.SameCoordinates,Original*%
%TF.FileFunction,Legend,Top*%
%TF.FilePolarity,Positive*%
%FSLAX46Y46*%
G04 Gerber Fmt 4.6, Leading zero omitted, Abs format (unit mm)*
G04 Created by KiCad (PCBNEW (5.99.0-10209-gdc0cf3b802)) date 2021-04-10 19:11:07*
%MOMM*%
%LPD*%
G01*
G04 APERTURE LIST*
%ADD10C,0.150000*%
%ADD11C,0.120000*%
G04 APERTURE END LIST*
D10*
X126738095Y-94504500D02*
X126642857Y-94456880D01*
X126500000Y-94456880D01*
X126357142Y-94504500D01*
X126261904Y-94599738D01*
X126214285Y-94694976D01*
X126166666Y-94885452D01*
X126166666Y-95028309D01*
X126214285Y-95218785D01*
X126261904Y-95314023D01*
X126357142Y-95409261D01*
X126500000Y-95456880D01*
X126595238Y-95456880D01*
X126738095Y-95409261D01*
X126785714Y-95361642D01*
X126785714Y-95028309D01*
X126595238Y-95028309D01*
X127214285Y-95456880D02*
X127214285Y-94456880D01*
X127785714Y-95456880D01*
X127785714Y-94456880D01*
X128261904Y-95456880D02*
X128261904Y-94456880D01*
X128500000Y-94456880D01*
X128642857Y-94504500D01*
X128738095Y-94599738D01*
X128785714Y-94694976D01*
X128833333Y-94885452D01*
X128833333Y-95028309D01*
X128785714Y-95218785D01*
X128738095Y-95314023D01*
X128642857Y-95409261D01*
X128500000Y-95456880D01*
X128261904Y-95456880D01*
X121261904Y-71657619D02*
X120928571Y-70657619D01*
X120595238Y-71657619D01*
X120071428Y-71657619D02*
X119880952Y-71657619D01*
X119785714Y-71610000D01*
X119690476Y-71514761D01*
X119642857Y-71324285D01*
X119642857Y-70990952D01*
X119690476Y-70800476D01*
X119785714Y-70705238D01*
X119880952Y-70657619D01*
X120071428Y-70657619D01*
X120166666Y-70705238D01*
X120261904Y-70800476D01*
X120309523Y-70990952D01*
X120309523Y-71324285D01*
X120261904Y-71514761D01*
X120166666Y-71610000D01*
X120071428Y-71657619D01*
X119214285Y-71657619D02*
X119214285Y-70848095D01*
X119166666Y-70752857D01*
X119119047Y-70705238D01*
X119023809Y-70657619D01*
X118833333Y-70657619D01*
X118738095Y-70705238D01*
X118690476Y-70752857D01*
X118642857Y-70848095D01*
X118642857Y-71657619D01*
X118309523Y-71657619D02*
X117738095Y-71657619D01*
X118023809Y-70657619D02*
X118023809Y-71657619D01*
X115104761Y-88247380D02*
X115438095Y-89247380D01*
X115771428Y-88247380D01*
X116104761Y-89247380D02*
X116104761Y-88247380D01*
X116580952Y-89247380D02*
X116580952Y-88247380D01*
X117152380Y-89247380D01*
X117152380Y-88247380D01*
X113119047Y-95071428D02*
X113880952Y-95071428D01*
X113500000Y-95452380D02*
X113500000Y-94690476D01*
X108619047Y-65071428D02*
X109380952Y-65071428D01*
X109000000Y-65452380D02*
X109000000Y-64690476D01*
X123761904Y-65500000D02*
X123857142Y-65547619D01*
X124000000Y-65547619D01*
X124142857Y-65500000D01*
X124238095Y-65404761D01*
X124285714Y-65309523D01*
X124333333Y-65119047D01*
X124333333Y-64976190D01*
X124285714Y-64785714D01*
X124238095Y-64690476D01*
X124142857Y-64595238D01*
X124000000Y-64547619D01*
X123904761Y-64547619D01*
X123761904Y-64595238D01*
X123714285Y-64642857D01*
X123714285Y-64976190D01*
X123904761Y-64976190D01*
X123285714Y-64547619D02*
X123285714Y-65547619D01*
X122714285Y-64547619D01*
X122714285Y-65547619D01*
X122238095Y-64547619D02*
X122238095Y-65547619D01*
X122000000Y-65547619D01*
X121857142Y-65500000D01*
X121761904Y-65404761D01*
X121714285Y-65309523D01*
X121666666Y-65119047D01*
X121666666Y-64976190D01*
X121714285Y-64785714D01*
X121761904Y-64690476D01*
X121857142Y-64595238D01*
X122000000Y-64547619D01*
X122238095Y-64547619D01*
%TO.C,C7*%
X117757142Y-75886666D02*
X117804761Y-75934285D01*
X117852380Y-76077142D01*
X117852380Y-76172380D01*
X117804761Y-76315238D01*
X117709523Y-76410476D01*
X117614285Y-76458095D01*
X117423809Y-76505714D01*
X117280952Y-76505714D01*
X117090476Y-76458095D01*
X116995238Y-76410476D01*
X116900000Y-76315238D01*
X116852380Y-76172380D01*
X116852380Y-76077142D01*
X116900000Y-75934285D01*
X116947619Y-75886666D01*
X116852380Y-75553333D02*
X116852380Y-74886666D01*
X117852380Y-75315238D01*
%TO.C,C8*%
X120257142Y-76006666D02*
X120304761Y-76054285D01*
X120352380Y-76197142D01*
X120352380Y-76292380D01*
X120304761Y-76435238D01*
X120209523Y-76530476D01*
X120114285Y-76578095D01*
X119923809Y-76625714D01*
X119780952Y-76625714D01*
X119590476Y-76578095D01*
X119495238Y-76530476D01*
X119400000Y-76435238D01*
X119352380Y-76292380D01*
X119352380Y-76197142D01*
X119400000Y-76054285D01*
X119447619Y-76006666D01*
X119780952Y-75435238D02*
X119733333Y-75530476D01*
X119685714Y-75578095D01*
X119590476Y-75625714D01*
X119542857Y-75625714D01*
X119447619Y-75578095D01*
X119400000Y-75530476D01*
X119352380Y-75435238D01*
X119352380Y-75244761D01*
X119400000Y-75149523D01*
X119447619Y-75101904D01*
X119542857Y-75054285D01*
X119590476Y-75054285D01*
X119685714Y-75101904D01*
X119733333Y-75149523D01*
X119780952Y-75244761D01*
X119780952Y-75435238D01*
X119828571Y-75530476D01*
X119876190Y-75578095D01*
X119971428Y-75625714D01*
X120161904Y-75625714D01*
X120257142Y-75578095D01*
X120304761Y-75530476D01*
X120352380Y-75435238D01*
X120352380Y-75244761D01*
X120304761Y-75149523D01*
X120257142Y-75101904D01*
X120161904Y-75054285D01*
X119971428Y-75054285D01*
X119876190Y-75101904D01*
X119828571Y-75149523D01*
X119780952Y-75244761D01*
%TO.C,C4*%
X135857142Y-81366666D02*
X135904761Y-81414285D01*
X135952380Y-81557142D01*
X135952380Y-81652380D01*
X135904761Y-81795238D01*
X135809523Y-81890476D01*
X135714285Y-81938095D01*
X135523809Y-81985714D01*
X135380952Y-81985714D01*
X135190476Y-81938095D01*
X135095238Y-81890476D01*
X135000000Y-81795238D01*
X134952380Y-81652380D01*
X134952380Y-81557142D01*
X135000000Y-81414285D01*
X135047619Y-81366666D01*
X135285714Y-80509523D02*
X135952380Y-80509523D01*
X134904761Y-80747619D02*
X135619047Y-80985714D01*
X135619047Y-80366666D01*
%TO.C,R2*%
X132333333Y-88952380D02*
X132000000Y-88476190D01*
X131761904Y-88952380D02*
X131761904Y-87952380D01*
X132142857Y-87952380D01*
X132238095Y-88000000D01*
X132285714Y-88047619D01*
X132333333Y-88142857D01*
X132333333Y-88285714D01*
X132285714Y-88380952D01*
X132238095Y-88428571D01*
X132142857Y-88476190D01*
X131761904Y-88476190D01*
X132714285Y-88047619D02*
X132761904Y-88000000D01*
X132857142Y-87952380D01*
X133095238Y-87952380D01*
X133190476Y-88000000D01*
X133238095Y-88047619D01*
X133285714Y-88142857D01*
X133285714Y-88238095D01*
X133238095Y-88380952D01*
X132666666Y-88952380D01*
X133285714Y-88952380D01*
%TO.C,C1*%
X118407142Y-84966666D02*
X118454761Y-85014285D01*
X118502380Y-85157142D01*
X118502380Y-85252380D01*
X118454761Y-85395238D01*
X118359523Y-85490476D01*
X118264285Y-85538095D01*
X118073809Y-85585714D01*
X117930952Y-85585714D01*
X117740476Y-85538095D01*
X117645238Y-85490476D01*
X117550000Y-85395238D01*
X117502380Y-85252380D01*
X117502380Y-85157142D01*
X117550000Y-85014285D01*
X117597619Y-84966666D01*
X118502380Y-84014285D02*
X118502380Y-84585714D01*
X118502380Y-84300000D02*
X117502380Y-84300000D01*
X117645238Y-84395238D01*
X117740476Y-84490476D01*
X117788095Y-84585714D01*
%TO.C,C3*%
X135833333Y-85077142D02*
X135785714Y-85124761D01*
X135642857Y-85172380D01*
X135547619Y-85172380D01*
X135404761Y-85124761D01*
X135309523Y-85029523D01*
X135261904Y-84934285D01*
X135214285Y-84743809D01*
X135214285Y-84600952D01*
X135261904Y-84410476D01*
X135309523Y-84315238D01*
X135404761Y-84220000D01*
X135547619Y-84172380D01*
X135642857Y-84172380D01*
X135785714Y-84220000D01*
X135833333Y-84267619D01*
X136166666Y-84172380D02*
X136785714Y-84172380D01*
X136452380Y-84553333D01*
X136595238Y-84553333D01*
X136690476Y-84600952D01*
X136738095Y-84648571D01*
X136785714Y-84743809D01*
X136785714Y-84981904D01*
X136738095Y-85077142D01*
X136690476Y-85124761D01*
X136595238Y-85172380D01*
X136309523Y-85172380D01*
X136214285Y-85124761D01*
X136166666Y-85077142D01*
%TO.C,J2*%
X108597380Y-61428333D02*
X109311666Y-61428333D01*
X109454523Y-61475952D01*
X109549761Y-61571190D01*
X109597380Y-61714047D01*
X109597380Y-61809285D01*
X108692619Y-60999761D02*
X108645000Y-60952142D01*
X108597380Y-60856904D01*
X108597380Y-60618809D01*
X108645000Y-60523571D01*
X108692619Y-60475952D01*
X108787857Y-60428333D01*
X108883095Y-60428333D01*
X109025952Y-60475952D01*
X109597380Y-61047380D01*
X109597380Y-60428333D01*
%TO.C,C5*%
X112757142Y-75886666D02*
X112804761Y-75934285D01*
X112852380Y-76077142D01*
X112852380Y-76172380D01*
X112804761Y-76315238D01*
X112709523Y-76410476D01*
X112614285Y-76458095D01*
X112423809Y-76505714D01*
X112280952Y-76505714D01*
X112090476Y-76458095D01*
X111995238Y-76410476D01*
X111900000Y-76315238D01*
X111852380Y-76172380D01*
X111852380Y-76077142D01*
X111900000Y-75934285D01*
X111947619Y-75886666D01*
X111852380Y-74981904D02*
X111852380Y-75458095D01*
X112328571Y-75505714D01*
X112280952Y-75458095D01*
X112233333Y-75362857D01*
X112233333Y-75124761D01*
X112280952Y-75029523D01*
X112328571Y-74981904D01*
X112423809Y-74934285D01*
X112661904Y-74934285D01*
X112757142Y-74981904D01*
X112804761Y-75029523D01*
X112852380Y-75124761D01*
X112852380Y-75362857D01*
X112804761Y-75458095D01*
X112757142Y-75505714D01*
%TO.C,U1*%
X126938095Y-80452380D02*
X126938095Y-81261904D01*
X126985714Y-81357142D01*
X127033333Y-81404761D01*
X127128571Y-81452380D01*
X127319047Y-81452380D01*
X127414285Y-81404761D01*
X127461904Y-81357142D01*
X127509523Y-81261904D01*
X127509523Y-80452380D01*
X128509523Y-81452380D02*
X127938095Y-81452380D01*
X128223809Y-81452380D02*
X128223809Y-80452380D01*
X128128571Y-80595238D01*
X128033333Y-80690476D01*
X127938095Y-80738095D01*
%TO.C,L1*%
X135152380Y-73966666D02*
X135152380Y-74442857D01*
X134152380Y-74442857D01*
X135152380Y-73109523D02*
X135152380Y-73680952D01*
X135152380Y-73395238D02*
X134152380Y-73395238D01*
X134295238Y-73490476D01*
X134390476Y-73585714D01*
X134438095Y-73680952D01*
%TO.C,C6*%
X115357142Y-75886666D02*
X115404761Y-75934285D01*
X115452380Y-76077142D01*
X115452380Y-76172380D01*
X115404761Y-76315238D01*
X115309523Y-76410476D01*
X115214285Y-76458095D01*
X115023809Y-76505714D01*
X114880952Y-76505714D01*
X114690476Y-76458095D01*
X114595238Y-76410476D01*
X114500000Y-76315238D01*
X114452380Y-76172380D01*
X114452380Y-76077142D01*
X114500000Y-75934285D01*
X114547619Y-75886666D01*
X114452380Y-75029523D02*
X114452380Y-75220000D01*
X114500000Y-75315238D01*
X114547619Y-75362857D01*
X114690476Y-75458095D01*
X114880952Y-75505714D01*
X115261904Y-75505714D01*
X115357142Y-75458095D01*
X115404761Y-75410476D01*
X115452380Y-75315238D01*
X115452380Y-75124761D01*
X115404761Y-75029523D01*
X115357142Y-74981904D01*
X115261904Y-74934285D01*
X115023809Y-74934285D01*
X114928571Y-74981904D01*
X114880952Y-75029523D01*
X114833333Y-75124761D01*
X114833333Y-75315238D01*
X114880952Y-75410476D01*
X114928571Y-75458095D01*
X115023809Y-75505714D01*
%TO.C,C2*%
X122757142Y-86886666D02*
X122804761Y-86934285D01*
X122852380Y-87077142D01*
X122852380Y-87172380D01*
X122804761Y-87315238D01*
X122709523Y-87410476D01*
X122614285Y-87458095D01*
X122423809Y-87505714D01*
X122280952Y-87505714D01*
X122090476Y-87458095D01*
X121995238Y-87410476D01*
X121900000Y-87315238D01*
X121852380Y-87172380D01*
X121852380Y-87077142D01*
X121900000Y-86934285D01*
X121947619Y-86886666D01*
X121947619Y-86505714D02*
X121900000Y-86458095D01*
X121852380Y-86362857D01*
X121852380Y-86124761D01*
X121900000Y-86029523D01*
X121947619Y-85981904D01*
X122042857Y-85934285D01*
X122138095Y-85934285D01*
X122280952Y-85981904D01*
X122852380Y-86553333D01*
X122852380Y-85934285D01*
%TO.C,R1*%
X132333333Y-91452380D02*
X132000000Y-90976190D01*
X131761904Y-91452380D02*
X131761904Y-90452380D01*
X132142857Y-90452380D01*
X132238095Y-90500000D01*
X132285714Y-90547619D01*
X132333333Y-90642857D01*
X132333333Y-90785714D01*
X132285714Y-90880952D01*
X132238095Y-90928571D01*
X132142857Y-90976190D01*
X131761904Y-90976190D01*
X133285714Y-91452380D02*
X132714285Y-91452380D01*
X133000000Y-91452380D02*
X133000000Y-90452380D01*
X132904761Y-90595238D01*
X132809523Y-90690476D01*
X132714285Y-90738095D01*
%TO.C,J1*%
X112952380Y-98833333D02*
X113666666Y-98833333D01*
X113809523Y-98880952D01*
X113904761Y-98976190D01*
X113952380Y-99119047D01*
X113952380Y-99214285D01*
X113952380Y-97833333D02*
X113952380Y-98404761D01*
X113952380Y-98119047D02*
X112952380Y-98119047D01*
X113095238Y-98214285D01*
X113190476Y-98309523D01*
X113238095Y-98404761D01*
D11*
%TO.C,C7*%
X116490000Y-79008748D02*
X116490000Y-80431252D01*
X118310000Y-79008748D02*
X118310000Y-80431252D01*
%TO.C,C8*%
X120810000Y-79008748D02*
X120810000Y-80431252D01*
X118990000Y-79008748D02*
X118990000Y-80431252D01*
%TO.C,C4*%
X132490000Y-82188748D02*
X132490000Y-83611252D01*
X134310000Y-82188748D02*
X134310000Y-83611252D01*
%TO.C,R2*%
X129727064Y-87590000D02*
X128272936Y-87590000D01*
X129727064Y-89410000D02*
X128272936Y-89410000D01*
%TO.C,C1*%
X118990000Y-85511252D02*
X118990000Y-84088748D01*
X120810000Y-85511252D02*
X120810000Y-84088748D01*
%TO.C,C3*%
X133988748Y-87610000D02*
X135411252Y-87610000D01*
X133988748Y-85790000D02*
X135411252Y-85790000D01*
%TO.C,J2*%
X110365000Y-69956000D02*
X110365000Y-60035000D01*
X120645000Y-69956000D02*
X110365000Y-69956000D01*
X120645000Y-62095000D02*
X110365000Y-62095000D01*
X111690000Y-65764000D02*
X111737000Y-65718000D01*
X120645000Y-60595000D02*
X110365000Y-60595000D01*
X120885000Y-59795000D02*
X120385000Y-59795000D01*
X113999000Y-63456000D02*
X114034000Y-63421000D01*
X120645000Y-66996000D02*
X110365000Y-66996000D01*
X114192000Y-63672000D02*
X114239000Y-63626000D01*
X120885000Y-60535000D02*
X120885000Y-59795000D01*
X120645000Y-60035000D02*
X110365000Y-60035000D01*
X120645000Y-69956000D02*
X120645000Y-60035000D01*
X111895000Y-65970000D02*
X111930000Y-65934000D01*
X119580426Y-64011958D02*
G75*
G02*
X119580000Y-65379000I-1535426J-683042D01*
G01*
X118728042Y-66230426D02*
G75*
G02*
X117361000Y-66230000I-683042J1535426D01*
G01*
X117361682Y-63160244D02*
G75*
G02*
X118045000Y-63015000I683318J-1534756D01*
G01*
X116509574Y-65378042D02*
G75*
G02*
X116510000Y-64011000I1535426J683042D01*
G01*
X118016195Y-63014747D02*
G75*
G02*
X118729000Y-63160000I28805J-1680253D01*
G01*
X114645000Y-64695000D02*
G75*
G03*
X114645000Y-64695000I-1680000J0D01*
G01*
%TO.C,C5*%
X111490000Y-79008748D02*
X111490000Y-80431252D01*
X113310000Y-79008748D02*
X113310000Y-80431252D01*
D10*
%TO.C,U1*%
X126025000Y-81725000D02*
X126025000Y-81775000D01*
X126025000Y-81725000D02*
X130175000Y-81725000D01*
X126025000Y-81775000D02*
X124625000Y-81775000D01*
X126025000Y-86875000D02*
X130175000Y-86875000D01*
X130175000Y-81725000D02*
X130175000Y-81870000D01*
X126025000Y-86875000D02*
X126025000Y-86730000D01*
X130175000Y-86875000D02*
X130175000Y-86730000D01*
D11*
%TO.C,L1*%
X126200000Y-80200000D02*
X123000000Y-77000000D01*
X129800000Y-80200000D02*
X126200000Y-80200000D01*
X126200000Y-69800000D02*
X123000000Y-73000000D01*
X126200000Y-69800000D02*
X129800000Y-69800000D01*
X129800000Y-69800000D02*
X133000000Y-73000000D01*
X129800000Y-80200000D02*
X133000000Y-77000000D01*
%TO.C,C6*%
X113990000Y-79008748D02*
X113990000Y-80431252D01*
X115810000Y-79008748D02*
X115810000Y-80431252D01*
%TO.C,C2*%
X121590000Y-83711252D02*
X121590000Y-82288748D01*
X123410000Y-83711252D02*
X123410000Y-82288748D01*
%TO.C,R1*%
X128272936Y-90090000D02*
X129727064Y-90090000D01*
X128272936Y-91910000D02*
X129727064Y-91910000D01*
%TO.C,J1*%
X114855000Y-90044000D02*
X125135000Y-90044000D01*
X114615000Y-100205000D02*
X115115000Y-100205000D01*
X114855000Y-99405000D02*
X125135000Y-99405000D01*
X123605000Y-94030000D02*
X123570000Y-94066000D01*
X114615000Y-99465000D02*
X114615000Y-100205000D01*
X114855000Y-99965000D02*
X125135000Y-99965000D01*
X114855000Y-93004000D02*
X125135000Y-93004000D01*
X125135000Y-90044000D02*
X125135000Y-99965000D01*
X114855000Y-97905000D02*
X125135000Y-97905000D01*
X114855000Y-90044000D02*
X114855000Y-99965000D01*
X121308000Y-96328000D02*
X121261000Y-96374000D01*
X121501000Y-96544000D02*
X121466000Y-96579000D01*
X123810000Y-94236000D02*
X123763000Y-94282000D01*
X118138318Y-96839756D02*
G75*
G02*
X117455000Y-96985000I-683318J1534756D01*
G01*
X115919574Y-95988042D02*
G75*
G02*
X115920000Y-94621000I1535426J683042D01*
G01*
X117483805Y-96985253D02*
G75*
G02*
X116771000Y-96840000I-28805J1680253D01*
G01*
X116771958Y-93769574D02*
G75*
G02*
X118139000Y-93770000I683042J-1535426D01*
G01*
X118990426Y-94621958D02*
G75*
G02*
X118990000Y-95989000I-1535426J-683042D01*
G01*
X124215000Y-95305000D02*
G75*
G03*
X124215000Y-95305000I-1680000J0D01*
G01*
%TD*%
M02*
