%TF.GenerationSoftware,KiCad,Pcbnew,(5.99.0-10209-gdc0cf3b802)*%
%TF.CreationDate,2021-04-10T19:11:07+02:00*%
%TF.ProjectId,BUCK_LMR33630,4255434b-5f4c-44d5-9233-333633302e6b,rev?*%
%TF.SameCoordinates,Original*%
%TF.FileFunction,Copper,L2,Bot*%
%TF.FilePolarity,Positive*%
%FSLAX46Y46*%
G04 Gerber Fmt 4.6, Leading zero omitted, Abs format (unit mm)*
G04 Created by KiCad (PCBNEW (5.99.0-10209-gdc0cf3b802)) date 2021-04-10 19:11:07*
%MOMM*%
%LPD*%
G01*
G04 APERTURE LIST*
%TA.AperFunction,ComponentPad*%
%ADD10R,2.600000X2.600000*%
%TD*%
%TA.AperFunction,ComponentPad*%
%ADD11C,2.600000*%
%TD*%
%TA.AperFunction,ComponentPad*%
%ADD12C,0.600000*%
%TD*%
%TA.AperFunction,SMDPad,CuDef*%
%ADD13R,2.950000X4.900000*%
%TD*%
%TA.AperFunction,ViaPad*%
%ADD14C,0.800000*%
%TD*%
%TA.AperFunction,Conductor*%
%ADD15C,0.400000*%
%TD*%
G04 APERTURE END LIST*
D10*
%TO.P,J2,1,Pin_1*%
%TO.N,GND*%
X118045000Y-64695000D03*
D11*
%TO.P,J2,2,Pin_2*%
%TO.N,VOUT*%
X112965000Y-64695000D03*
%TD*%
D12*
%TO.P,U1,9,AGND*%
%TO.N,GND*%
X128750000Y-84950000D03*
X127450000Y-86250000D03*
X127450000Y-83650000D03*
X127450000Y-84950000D03*
X127450000Y-82350000D03*
X128750000Y-86250000D03*
X128750000Y-83650000D03*
D13*
X128100000Y-84300000D03*
D12*
X128750000Y-82350000D03*
%TD*%
D10*
%TO.P,J1,1,Pin_1*%
%TO.N,VIN*%
X117455000Y-95305000D03*
D11*
%TO.P,J1,2,Pin_2*%
%TO.N,GND*%
X122535000Y-95305000D03*
%TD*%
D14*
%TO.N,GND*%
X121000000Y-88200000D03*
X114900000Y-82800000D03*
X136300000Y-88200000D03*
X123500000Y-86600000D03*
X137800000Y-86700000D03*
X116100000Y-76200000D03*
X117400000Y-82900000D03*
X124000000Y-91100000D03*
X112400000Y-82900000D03*
X119800000Y-76200000D03*
X124200000Y-80900000D03*
X110500000Y-76300000D03*
X136300000Y-85000000D03*
X126300000Y-88500000D03*
%TO.N,VOUT*%
X126000000Y-91000000D03*
X122000000Y-77000000D03*
%TD*%
D15*
%TO.N,VOUT*%
X126000000Y-91000000D02*
X122000000Y-87000000D01*
X122000000Y-87000000D02*
X122000000Y-77000000D01*
%TD*%
%TA.AperFunction,Conductor*%
%TO.N,GND*%
G36*
X139434121Y-60528002D02*
G01*
X139480614Y-60581658D01*
X139492000Y-60634000D01*
X139492000Y-99366000D01*
X139471998Y-99434121D01*
X139418342Y-99480614D01*
X139366000Y-99492000D01*
X100634000Y-99492000D01*
X100565879Y-99471998D01*
X100519386Y-99418342D01*
X100508000Y-99366000D01*
X100508000Y-95977868D01*
X101886616Y-95977868D01*
X101903166Y-96264892D01*
X101903991Y-96269097D01*
X101903992Y-96269105D01*
X101906692Y-96282866D01*
X101958516Y-96547014D01*
X101959903Y-96551065D01*
X102034426Y-96768729D01*
X102051642Y-96819014D01*
X102053568Y-96822843D01*
X102176480Y-97067225D01*
X102180822Y-97075859D01*
X102343664Y-97312796D01*
X102537155Y-97525440D01*
X102757716Y-97709857D01*
X102761357Y-97712141D01*
X102997624Y-97860352D01*
X102997628Y-97860354D01*
X103001264Y-97862635D01*
X103263293Y-97980945D01*
X103267412Y-97982165D01*
X103534841Y-98061382D01*
X103534846Y-98061383D01*
X103538954Y-98062600D01*
X103543188Y-98063248D01*
X103543193Y-98063249D01*
X103796037Y-98101940D01*
X103823147Y-98106088D01*
X103969498Y-98108387D01*
X104106321Y-98110537D01*
X104106327Y-98110537D01*
X104110612Y-98110604D01*
X104114864Y-98110089D01*
X104114872Y-98110089D01*
X104336529Y-98083265D01*
X104396030Y-98076064D01*
X104400179Y-98074976D01*
X104400182Y-98074975D01*
X104669970Y-98004198D01*
X104674121Y-98003109D01*
X104939736Y-97893087D01*
X104988827Y-97864401D01*
X105184255Y-97750202D01*
X105184257Y-97750200D01*
X105187963Y-97748035D01*
X105414208Y-97570637D01*
X105614283Y-97364175D01*
X105616816Y-97360727D01*
X105616820Y-97360722D01*
X105781949Y-97135925D01*
X105784487Y-97132470D01*
X105792419Y-97117861D01*
X105919621Y-96883585D01*
X105919622Y-96883583D01*
X105921671Y-96879809D01*
X105995449Y-96684562D01*
X106021777Y-96614887D01*
X106021778Y-96614883D01*
X106023295Y-96610869D01*
X106075632Y-96382350D01*
X106086521Y-96334808D01*
X106086522Y-96334804D01*
X106087479Y-96330624D01*
X106091742Y-96282866D01*
X106112816Y-96046728D01*
X106112816Y-96046726D01*
X106113036Y-96044262D01*
X106113500Y-96000000D01*
X106108684Y-95929351D01*
X106094238Y-95717442D01*
X106094237Y-95717436D01*
X106093946Y-95713165D01*
X106089409Y-95691254D01*
X106056125Y-95530537D01*
X106035644Y-95431638D01*
X105939674Y-95160628D01*
X105807812Y-94905150D01*
X105642498Y-94669931D01*
X105639573Y-94666783D01*
X105449711Y-94462468D01*
X105449708Y-94462466D01*
X105446790Y-94459325D01*
X105443474Y-94456611D01*
X105443471Y-94456608D01*
X105227629Y-94279942D01*
X105227622Y-94279937D01*
X105224311Y-94277227D01*
X104979176Y-94127009D01*
X104975240Y-94125281D01*
X104719851Y-94013172D01*
X104719847Y-94013171D01*
X104715923Y-94011448D01*
X104693287Y-94005000D01*
X115641500Y-94005000D01*
X115641500Y-96605000D01*
X115646727Y-96678079D01*
X115687904Y-96818316D01*
X115692775Y-96825895D01*
X115762051Y-96933691D01*
X115762053Y-96933694D01*
X115766923Y-96941271D01*
X115773733Y-96947172D01*
X115870569Y-97031082D01*
X115870572Y-97031084D01*
X115877381Y-97036984D01*
X115885579Y-97040728D01*
X115985703Y-97086453D01*
X116010330Y-97097700D01*
X116019245Y-97098982D01*
X116019246Y-97098982D01*
X116150552Y-97117861D01*
X116150559Y-97117862D01*
X116155000Y-97118500D01*
X118755000Y-97118500D01*
X118828079Y-97113273D01*
X118919420Y-97086453D01*
X118959670Y-97074635D01*
X118959672Y-97074634D01*
X118968316Y-97072096D01*
X119032135Y-97031082D01*
X119083691Y-96997949D01*
X119083694Y-96997947D01*
X119091271Y-96993077D01*
X119097172Y-96986267D01*
X119181082Y-96889431D01*
X119181084Y-96889428D01*
X119186984Y-96882619D01*
X119204305Y-96844692D01*
X119243958Y-96757864D01*
X119243958Y-96757863D01*
X119247615Y-96749856D01*
X121454889Y-96749856D01*
X121463603Y-96761376D01*
X121570482Y-96839744D01*
X121578401Y-96844692D01*
X121807918Y-96965447D01*
X121816492Y-96969175D01*
X122061345Y-97054682D01*
X122070354Y-97057096D01*
X122325174Y-97105475D01*
X122334431Y-97106529D01*
X122593605Y-97116713D01*
X122602918Y-97116387D01*
X122860752Y-97088149D01*
X122869906Y-97086453D01*
X123120732Y-97020416D01*
X123129552Y-97017379D01*
X123367856Y-96914996D01*
X123376128Y-96910689D01*
X123596678Y-96774209D01*
X123604222Y-96768729D01*
X123609511Y-96764251D01*
X123617948Y-96751450D01*
X123611883Y-96741093D01*
X122547812Y-95677022D01*
X122533868Y-95669408D01*
X122532035Y-95669539D01*
X122525420Y-95673790D01*
X121461547Y-96737663D01*
X121454889Y-96749856D01*
X119247615Y-96749856D01*
X119247700Y-96749670D01*
X119258962Y-96671340D01*
X119267861Y-96609448D01*
X119267862Y-96609441D01*
X119268500Y-96605000D01*
X119268500Y-95262212D01*
X120722845Y-95262212D01*
X120735290Y-95521277D01*
X120736427Y-95530537D01*
X120787025Y-95784915D01*
X120789519Y-95793908D01*
X120877159Y-96038005D01*
X120880959Y-96046540D01*
X121003717Y-96275004D01*
X121008725Y-96282866D01*
X121078770Y-96376666D01*
X121090029Y-96385115D01*
X121102447Y-96378343D01*
X122162978Y-95317812D01*
X122169356Y-95306132D01*
X122899408Y-95306132D01*
X122899539Y-95307965D01*
X122903790Y-95314580D01*
X123971044Y-96381834D01*
X123983424Y-96388594D01*
X123991765Y-96382350D01*
X124125767Y-96174020D01*
X124130213Y-96165830D01*
X124214884Y-95977868D01*
X132886616Y-95977868D01*
X132903166Y-96264892D01*
X132903991Y-96269097D01*
X132903992Y-96269105D01*
X132906692Y-96282866D01*
X132958516Y-96547014D01*
X132959903Y-96551065D01*
X133034426Y-96768729D01*
X133051642Y-96819014D01*
X133053568Y-96822843D01*
X133176480Y-97067225D01*
X133180822Y-97075859D01*
X133343664Y-97312796D01*
X133537155Y-97525440D01*
X133757716Y-97709857D01*
X133761357Y-97712141D01*
X133997624Y-97860352D01*
X133997628Y-97860354D01*
X134001264Y-97862635D01*
X134263293Y-97980945D01*
X134267412Y-97982165D01*
X134534841Y-98061382D01*
X134534846Y-98061383D01*
X134538954Y-98062600D01*
X134543188Y-98063248D01*
X134543193Y-98063249D01*
X134796037Y-98101940D01*
X134823147Y-98106088D01*
X134969498Y-98108387D01*
X135106321Y-98110537D01*
X135106327Y-98110537D01*
X135110612Y-98110604D01*
X135114864Y-98110089D01*
X135114872Y-98110089D01*
X135336529Y-98083265D01*
X135396030Y-98076064D01*
X135400179Y-98074976D01*
X135400182Y-98074975D01*
X135669970Y-98004198D01*
X135674121Y-98003109D01*
X135939736Y-97893087D01*
X135988827Y-97864401D01*
X136184255Y-97750202D01*
X136184257Y-97750200D01*
X136187963Y-97748035D01*
X136414208Y-97570637D01*
X136614283Y-97364175D01*
X136616816Y-97360727D01*
X136616820Y-97360722D01*
X136781949Y-97135925D01*
X136784487Y-97132470D01*
X136792419Y-97117861D01*
X136919621Y-96883585D01*
X136919622Y-96883583D01*
X136921671Y-96879809D01*
X136995449Y-96684562D01*
X137021777Y-96614887D01*
X137021778Y-96614883D01*
X137023295Y-96610869D01*
X137075632Y-96382350D01*
X137086521Y-96334808D01*
X137086522Y-96334804D01*
X137087479Y-96330624D01*
X137091742Y-96282866D01*
X137112816Y-96046728D01*
X137112816Y-96046726D01*
X137113036Y-96044262D01*
X137113500Y-96000000D01*
X137108684Y-95929351D01*
X137094238Y-95717442D01*
X137094237Y-95717436D01*
X137093946Y-95713165D01*
X137089409Y-95691254D01*
X137056125Y-95530537D01*
X137035644Y-95431638D01*
X136939674Y-95160628D01*
X136807812Y-94905150D01*
X136642498Y-94669931D01*
X136639573Y-94666783D01*
X136449711Y-94462468D01*
X136449708Y-94462466D01*
X136446790Y-94459325D01*
X136443474Y-94456611D01*
X136443471Y-94456608D01*
X136227629Y-94279942D01*
X136227622Y-94279937D01*
X136224311Y-94277227D01*
X135979176Y-94127009D01*
X135975240Y-94125281D01*
X135719851Y-94013172D01*
X135719847Y-94013171D01*
X135715923Y-94011448D01*
X135439421Y-93932685D01*
X135228794Y-93902708D01*
X135159041Y-93892781D01*
X135159039Y-93892781D01*
X135154789Y-93892176D01*
X135003976Y-93891387D01*
X134871579Y-93890693D01*
X134871573Y-93890693D01*
X134867292Y-93890671D01*
X134863048Y-93891230D01*
X134863044Y-93891230D01*
X134737864Y-93907710D01*
X134582251Y-93928197D01*
X134578111Y-93929330D01*
X134578109Y-93929330D01*
X134309732Y-94002750D01*
X134304940Y-94004061D01*
X134283580Y-94013172D01*
X134044433Y-94115176D01*
X134044426Y-94115180D01*
X134040491Y-94116858D01*
X134036810Y-94119061D01*
X133797479Y-94262297D01*
X133797475Y-94262300D01*
X133793797Y-94264501D01*
X133790454Y-94267179D01*
X133790450Y-94267182D01*
X133755427Y-94295241D01*
X133569423Y-94444259D01*
X133566479Y-94447361D01*
X133566475Y-94447365D01*
X133489161Y-94528837D01*
X133371520Y-94652804D01*
X133203752Y-94886279D01*
X133069222Y-95140362D01*
X132970419Y-95410352D01*
X132909173Y-95691254D01*
X132886616Y-95977868D01*
X124214884Y-95977868D01*
X124236740Y-95929351D01*
X124239935Y-95920574D01*
X124310334Y-95670953D01*
X124312192Y-95661823D01*
X124345117Y-95403015D01*
X124345598Y-95396729D01*
X124347917Y-95308160D01*
X124347766Y-95301851D01*
X124328432Y-95041674D01*
X124327055Y-95032468D01*
X124269812Y-94779487D01*
X124267088Y-94770576D01*
X124173080Y-94528837D01*
X124169069Y-94520427D01*
X124040364Y-94295241D01*
X124035153Y-94287515D01*
X123991946Y-94232707D01*
X123980020Y-94224236D01*
X123968488Y-94230722D01*
X122907022Y-95292188D01*
X122899408Y-95306132D01*
X122169356Y-95306132D01*
X122170592Y-95303868D01*
X122170461Y-95302035D01*
X122166210Y-95295420D01*
X121100866Y-94230076D01*
X121087558Y-94222809D01*
X121077519Y-94229931D01*
X121061998Y-94248593D01*
X121056587Y-94256177D01*
X120922027Y-94477924D01*
X120917798Y-94486224D01*
X120817498Y-94725412D01*
X120814537Y-94734262D01*
X120750697Y-94985637D01*
X120749075Y-94994834D01*
X120723090Y-95252887D01*
X120722845Y-95262212D01*
X119268500Y-95262212D01*
X119268500Y-94005000D01*
X119263273Y-93931921D01*
X119241491Y-93857739D01*
X121452154Y-93857739D01*
X121456729Y-93867519D01*
X122522188Y-94932978D01*
X122536132Y-94940592D01*
X122537965Y-94940461D01*
X122544580Y-94936210D01*
X123609299Y-93871491D01*
X123615683Y-93859801D01*
X123606272Y-93847691D01*
X123459003Y-93745527D01*
X123450976Y-93740799D01*
X123218350Y-93626081D01*
X123209717Y-93622593D01*
X122962681Y-93543516D01*
X122953630Y-93541343D01*
X122697625Y-93499650D01*
X122688336Y-93498838D01*
X122428996Y-93495443D01*
X122419684Y-93496013D01*
X122162696Y-93530987D01*
X122153560Y-93532928D01*
X121904567Y-93605504D01*
X121895824Y-93608772D01*
X121660286Y-93717357D01*
X121652131Y-93721877D01*
X121461290Y-93846999D01*
X121452154Y-93857739D01*
X119241491Y-93857739D01*
X119222096Y-93791684D01*
X119197574Y-93753528D01*
X119147949Y-93676309D01*
X119147947Y-93676306D01*
X119143077Y-93668729D01*
X119093859Y-93626081D01*
X119039431Y-93578918D01*
X119039428Y-93578916D01*
X119032619Y-93573016D01*
X118899670Y-93512300D01*
X118890755Y-93511018D01*
X118890754Y-93511018D01*
X118759448Y-93492139D01*
X118759441Y-93492138D01*
X118755000Y-93491500D01*
X116155000Y-93491500D01*
X116081921Y-93496727D01*
X116028884Y-93512300D01*
X115950330Y-93535365D01*
X115950328Y-93535366D01*
X115941684Y-93537904D01*
X115934105Y-93542775D01*
X115826309Y-93612051D01*
X115826306Y-93612053D01*
X115818729Y-93616923D01*
X115812828Y-93623733D01*
X115728918Y-93720569D01*
X115728916Y-93720572D01*
X115723016Y-93727381D01*
X115662300Y-93860330D01*
X115661018Y-93869245D01*
X115661018Y-93869246D01*
X115642139Y-94000552D01*
X115642138Y-94000559D01*
X115641500Y-94005000D01*
X104693287Y-94005000D01*
X104439421Y-93932685D01*
X104228794Y-93902708D01*
X104159041Y-93892781D01*
X104159039Y-93892781D01*
X104154789Y-93892176D01*
X104003976Y-93891387D01*
X103871579Y-93890693D01*
X103871573Y-93890693D01*
X103867292Y-93890671D01*
X103863048Y-93891230D01*
X103863044Y-93891230D01*
X103737864Y-93907710D01*
X103582251Y-93928197D01*
X103578111Y-93929330D01*
X103578109Y-93929330D01*
X103309732Y-94002750D01*
X103304940Y-94004061D01*
X103283580Y-94013172D01*
X103044433Y-94115176D01*
X103044426Y-94115180D01*
X103040491Y-94116858D01*
X103036810Y-94119061D01*
X102797479Y-94262297D01*
X102797475Y-94262300D01*
X102793797Y-94264501D01*
X102790454Y-94267179D01*
X102790450Y-94267182D01*
X102755427Y-94295241D01*
X102569423Y-94444259D01*
X102566479Y-94447361D01*
X102566475Y-94447365D01*
X102489161Y-94528837D01*
X102371520Y-94652804D01*
X102203752Y-94886279D01*
X102069222Y-95140362D01*
X101970419Y-95410352D01*
X101909173Y-95691254D01*
X101886616Y-95977868D01*
X100508000Y-95977868D01*
X100508000Y-77000000D01*
X121086500Y-77000000D01*
X121106462Y-77189927D01*
X121165476Y-77371554D01*
X121260963Y-77536942D01*
X121265377Y-77541845D01*
X121267438Y-77544681D01*
X121291500Y-77618739D01*
X121291500Y-86974047D01*
X121291208Y-86982617D01*
X121287477Y-87037342D01*
X121298461Y-87100273D01*
X121299421Y-87106766D01*
X121307096Y-87170194D01*
X121309781Y-87177298D01*
X121310418Y-87179893D01*
X121314872Y-87196175D01*
X121315648Y-87198745D01*
X121316953Y-87206224D01*
X121320004Y-87213175D01*
X121320006Y-87213181D01*
X121342620Y-87264696D01*
X121345113Y-87270804D01*
X121367694Y-87330562D01*
X121372000Y-87336827D01*
X121373250Y-87339218D01*
X121381433Y-87353920D01*
X121382807Y-87356243D01*
X121385861Y-87363201D01*
X121390486Y-87369228D01*
X121390488Y-87369232D01*
X121424746Y-87413878D01*
X121428615Y-87419203D01*
X121464796Y-87471846D01*
X121470466Y-87476898D01*
X121470467Y-87476899D01*
X121508682Y-87510947D01*
X121513958Y-87515928D01*
X125065340Y-91067311D01*
X125099366Y-91129623D01*
X125101555Y-91143234D01*
X125106462Y-91189927D01*
X125165476Y-91371554D01*
X125260963Y-91536942D01*
X125388749Y-91678863D01*
X125394091Y-91682744D01*
X125394093Y-91682746D01*
X125537908Y-91787233D01*
X125543250Y-91791114D01*
X125549278Y-91793798D01*
X125549280Y-91793799D01*
X125711682Y-91866105D01*
X125717713Y-91868790D01*
X125811113Y-91888643D01*
X125898056Y-91907124D01*
X125898061Y-91907124D01*
X125904513Y-91908496D01*
X126095487Y-91908496D01*
X126101939Y-91907124D01*
X126101944Y-91907124D01*
X126188887Y-91888643D01*
X126282287Y-91868790D01*
X126288318Y-91866105D01*
X126450720Y-91793799D01*
X126450722Y-91793798D01*
X126456750Y-91791114D01*
X126462092Y-91787233D01*
X126605907Y-91682746D01*
X126605909Y-91682744D01*
X126611251Y-91678863D01*
X126739037Y-91536942D01*
X126834524Y-91371554D01*
X126893538Y-91189927D01*
X126913500Y-91000000D01*
X126893538Y-90810073D01*
X126834524Y-90628446D01*
X126739037Y-90463058D01*
X126611251Y-90321137D01*
X126605909Y-90317256D01*
X126605907Y-90317254D01*
X126462092Y-90212767D01*
X126462091Y-90212766D01*
X126456750Y-90208886D01*
X126450722Y-90206202D01*
X126450720Y-90206201D01*
X126288318Y-90133895D01*
X126288317Y-90133895D01*
X126282287Y-90131210D01*
X126275826Y-90129837D01*
X126275821Y-90129835D01*
X126129437Y-90098719D01*
X126066539Y-90064568D01*
X122745405Y-86743434D01*
X122711379Y-86681122D01*
X122708500Y-86654339D01*
X122708500Y-84567548D01*
X126112000Y-84567548D01*
X126112000Y-86747743D01*
X126112161Y-86752250D01*
X126116740Y-86816269D01*
X126119126Y-86829491D01*
X126155819Y-86954458D01*
X126163233Y-86970692D01*
X126232426Y-87078360D01*
X126244112Y-87091847D01*
X126340840Y-87175662D01*
X126355848Y-87185307D01*
X126472275Y-87238477D01*
X126489388Y-87243502D01*
X126620554Y-87262361D01*
X126629495Y-87263000D01*
X127827885Y-87263000D01*
X127843124Y-87258525D01*
X127844329Y-87257135D01*
X127846000Y-87249452D01*
X127846000Y-87023326D01*
X127843808Y-87015861D01*
X128354000Y-87015861D01*
X128354000Y-87244885D01*
X128358475Y-87260124D01*
X128359865Y-87261329D01*
X128367548Y-87263000D01*
X129572743Y-87263000D01*
X129577250Y-87262839D01*
X129641269Y-87258260D01*
X129654491Y-87255874D01*
X129779458Y-87219181D01*
X129795692Y-87211767D01*
X129903360Y-87142574D01*
X129916847Y-87130888D01*
X130000662Y-87034160D01*
X130010307Y-87019152D01*
X130063477Y-86902725D01*
X130068502Y-86885612D01*
X130087361Y-86754446D01*
X130088000Y-86745503D01*
X130088000Y-84572115D01*
X130083525Y-84556876D01*
X130082135Y-84555671D01*
X130074452Y-84554000D01*
X129523326Y-84554000D01*
X129497681Y-84561530D01*
X129109210Y-84950000D01*
X128750000Y-85309210D01*
X128472022Y-85587189D01*
X128464409Y-85601132D01*
X128464540Y-85602967D01*
X128468790Y-85609580D01*
X129020115Y-86160905D01*
X129054141Y-86223217D01*
X129049076Y-86294032D01*
X129020115Y-86339095D01*
X128750000Y-86609210D01*
X128366812Y-86992399D01*
X128354000Y-87015861D01*
X127843808Y-87015861D01*
X127838469Y-86997679D01*
X127179885Y-86339095D01*
X127145859Y-86276783D01*
X127147694Y-86251131D01*
X127814408Y-86251131D01*
X127814539Y-86252966D01*
X127818789Y-86259578D01*
X127833191Y-86273980D01*
X127843276Y-86279487D01*
X127846000Y-86272184D01*
X127846000Y-86231326D01*
X127844969Y-86227816D01*
X128354000Y-86227816D01*
X128354000Y-86268674D01*
X128357237Y-86279699D01*
X128364328Y-86276461D01*
X128377979Y-86262811D01*
X128385592Y-86248869D01*
X128385461Y-86247034D01*
X128381211Y-86240422D01*
X128366809Y-86226020D01*
X128356724Y-86220513D01*
X128354000Y-86227816D01*
X127844969Y-86227816D01*
X127842763Y-86220301D01*
X127835672Y-86223539D01*
X127822021Y-86237189D01*
X127814408Y-86251131D01*
X127147694Y-86251131D01*
X127150924Y-86205968D01*
X127179885Y-86160905D01*
X127450000Y-85890790D01*
X127727977Y-85612812D01*
X127735591Y-85598868D01*
X127735460Y-85597033D01*
X127731212Y-85590423D01*
X127091921Y-84951131D01*
X127814408Y-84951131D01*
X127814539Y-84952966D01*
X127818789Y-84959578D01*
X127833191Y-84973980D01*
X127843276Y-84979487D01*
X127846000Y-84972184D01*
X127846000Y-84931326D01*
X127844969Y-84927816D01*
X128354000Y-84927816D01*
X128354000Y-84968674D01*
X128357237Y-84979699D01*
X128364328Y-84976461D01*
X128377979Y-84962811D01*
X128385592Y-84948869D01*
X128385461Y-84947034D01*
X128381211Y-84940422D01*
X128366809Y-84926020D01*
X128356724Y-84920513D01*
X128354000Y-84927816D01*
X127844969Y-84927816D01*
X127842763Y-84920301D01*
X127835672Y-84923539D01*
X127822021Y-84937189D01*
X127814408Y-84951131D01*
X127091921Y-84951131D01*
X127090790Y-84950000D01*
X126707600Y-84566811D01*
X126690066Y-84557237D01*
X127420301Y-84557237D01*
X127423539Y-84564328D01*
X127437189Y-84577979D01*
X127451131Y-84585592D01*
X127452966Y-84585461D01*
X127459578Y-84581211D01*
X127473980Y-84566809D01*
X127479207Y-84557237D01*
X128720301Y-84557237D01*
X128723539Y-84564328D01*
X128737189Y-84577979D01*
X128751131Y-84585592D01*
X128752966Y-84585461D01*
X128759578Y-84581211D01*
X128773980Y-84566809D01*
X128779487Y-84556724D01*
X128772184Y-84554000D01*
X128731326Y-84554000D01*
X128720301Y-84557237D01*
X127479207Y-84557237D01*
X127479487Y-84556724D01*
X127472184Y-84554000D01*
X127431326Y-84554000D01*
X127420301Y-84557237D01*
X126690066Y-84557237D01*
X126684138Y-84554000D01*
X126130115Y-84554000D01*
X126114876Y-84558475D01*
X126113671Y-84559865D01*
X126112000Y-84567548D01*
X122708500Y-84567548D01*
X122708500Y-81854495D01*
X126112000Y-81854495D01*
X126112000Y-84027885D01*
X126116475Y-84043124D01*
X126117865Y-84044329D01*
X126125548Y-84046000D01*
X126676674Y-84046000D01*
X126685951Y-84043276D01*
X127420513Y-84043276D01*
X127427816Y-84046000D01*
X127468674Y-84046000D01*
X127477952Y-84043276D01*
X128720513Y-84043276D01*
X128727816Y-84046000D01*
X128768674Y-84046000D01*
X128779699Y-84042763D01*
X128776461Y-84035672D01*
X128762811Y-84022021D01*
X128748869Y-84014408D01*
X128747034Y-84014539D01*
X128740422Y-84018789D01*
X128726020Y-84033191D01*
X128720513Y-84043276D01*
X127477952Y-84043276D01*
X127479699Y-84042763D01*
X127476461Y-84035672D01*
X127462811Y-84022021D01*
X127448869Y-84014408D01*
X127447034Y-84014539D01*
X127440422Y-84018789D01*
X127426020Y-84033191D01*
X127420513Y-84043276D01*
X126685951Y-84043276D01*
X126702319Y-84038470D01*
X127089659Y-83651131D01*
X127814408Y-83651131D01*
X127814539Y-83652966D01*
X127818789Y-83659578D01*
X127833191Y-83673980D01*
X127843276Y-83679487D01*
X127846000Y-83672184D01*
X127846000Y-83631326D01*
X127844969Y-83627816D01*
X128354000Y-83627816D01*
X128354000Y-83668674D01*
X128357237Y-83679699D01*
X128364328Y-83676461D01*
X128377979Y-83662811D01*
X128385592Y-83648869D01*
X128385461Y-83647034D01*
X128381211Y-83640422D01*
X128366809Y-83626020D01*
X128356724Y-83620513D01*
X128354000Y-83627816D01*
X127844969Y-83627816D01*
X127842763Y-83620301D01*
X127835672Y-83623539D01*
X127822021Y-83637189D01*
X127814408Y-83651131D01*
X127089659Y-83651131D01*
X127450000Y-83290790D01*
X127727978Y-83012811D01*
X127735591Y-82998868D01*
X127735460Y-82997033D01*
X127731210Y-82990420D01*
X127179885Y-82439095D01*
X127145859Y-82376783D01*
X127147694Y-82351131D01*
X127814408Y-82351131D01*
X127814539Y-82352966D01*
X127818789Y-82359578D01*
X127833191Y-82373980D01*
X127843276Y-82379487D01*
X127846000Y-82372184D01*
X127846000Y-82331326D01*
X127844969Y-82327816D01*
X128354000Y-82327816D01*
X128354000Y-82368674D01*
X128357237Y-82379699D01*
X128364328Y-82376461D01*
X128377979Y-82362811D01*
X128385592Y-82348869D01*
X128385461Y-82347034D01*
X128381211Y-82340422D01*
X128366809Y-82326020D01*
X128356724Y-82320513D01*
X128354000Y-82327816D01*
X127844969Y-82327816D01*
X127842763Y-82320301D01*
X127835672Y-82323539D01*
X127822021Y-82337189D01*
X127814408Y-82351131D01*
X127147694Y-82351131D01*
X127150924Y-82305968D01*
X127179885Y-82260905D01*
X127450000Y-81990790D01*
X127833188Y-81607601D01*
X127846000Y-81584139D01*
X127846000Y-81355115D01*
X127844659Y-81350548D01*
X128354000Y-81350548D01*
X128354000Y-81576674D01*
X128361531Y-81602321D01*
X129020115Y-82260905D01*
X129054141Y-82323217D01*
X129049076Y-82394032D01*
X129020115Y-82439095D01*
X128750000Y-82709210D01*
X128472023Y-82987188D01*
X128464409Y-83001132D01*
X128464540Y-83002967D01*
X128468788Y-83009577D01*
X128750000Y-83290790D01*
X129492400Y-84033189D01*
X129515862Y-84046000D01*
X130069885Y-84046000D01*
X130085124Y-84041525D01*
X130086329Y-84040135D01*
X130088000Y-84032452D01*
X130088000Y-81852257D01*
X130087839Y-81847750D01*
X130083260Y-81783731D01*
X130080874Y-81770509D01*
X130044181Y-81645542D01*
X130036767Y-81629308D01*
X129967574Y-81521640D01*
X129955888Y-81508153D01*
X129859160Y-81424338D01*
X129844152Y-81414693D01*
X129727725Y-81361523D01*
X129710612Y-81356498D01*
X129579446Y-81337639D01*
X129570505Y-81337000D01*
X128372115Y-81337000D01*
X128356876Y-81341475D01*
X128355671Y-81342865D01*
X128354000Y-81350548D01*
X127844659Y-81350548D01*
X127841525Y-81339876D01*
X127840135Y-81338671D01*
X127832452Y-81337000D01*
X126627257Y-81337000D01*
X126622750Y-81337161D01*
X126558731Y-81341740D01*
X126545509Y-81344126D01*
X126420542Y-81380819D01*
X126404308Y-81388233D01*
X126296640Y-81457426D01*
X126283153Y-81469112D01*
X126199338Y-81565840D01*
X126189693Y-81580848D01*
X126136523Y-81697275D01*
X126131498Y-81714388D01*
X126112639Y-81845554D01*
X126112000Y-81854495D01*
X122708500Y-81854495D01*
X122708500Y-77618739D01*
X122732562Y-77544681D01*
X122734623Y-77541845D01*
X122739037Y-77536942D01*
X122834524Y-77371554D01*
X122893538Y-77189927D01*
X122913500Y-77000000D01*
X122893538Y-76810073D01*
X122834524Y-76628446D01*
X122739037Y-76463058D01*
X122611251Y-76321137D01*
X122605909Y-76317256D01*
X122605907Y-76317254D01*
X122462092Y-76212767D01*
X122462091Y-76212766D01*
X122456750Y-76208886D01*
X122450722Y-76206202D01*
X122450720Y-76206201D01*
X122288318Y-76133895D01*
X122288317Y-76133895D01*
X122282287Y-76131210D01*
X122188887Y-76111357D01*
X122101944Y-76092876D01*
X122101939Y-76092876D01*
X122095487Y-76091504D01*
X121904513Y-76091504D01*
X121898061Y-76092876D01*
X121898056Y-76092876D01*
X121811113Y-76111357D01*
X121717713Y-76131210D01*
X121711683Y-76133895D01*
X121711682Y-76133895D01*
X121549280Y-76206201D01*
X121549278Y-76206202D01*
X121543250Y-76208886D01*
X121537909Y-76212766D01*
X121537908Y-76212767D01*
X121394093Y-76317254D01*
X121394091Y-76317256D01*
X121388749Y-76321137D01*
X121260963Y-76463058D01*
X121165476Y-76628446D01*
X121106462Y-76810073D01*
X121086500Y-77000000D01*
X100508000Y-77000000D01*
X100508000Y-63977868D01*
X102386616Y-63977868D01*
X102403166Y-64264892D01*
X102403991Y-64269097D01*
X102403992Y-64269105D01*
X102434163Y-64422885D01*
X102458516Y-64547014D01*
X102459903Y-64551065D01*
X102510265Y-64698160D01*
X102551642Y-64819014D01*
X102553568Y-64822843D01*
X102671113Y-65056554D01*
X102680822Y-65075859D01*
X102843664Y-65312796D01*
X103037155Y-65525440D01*
X103257716Y-65709857D01*
X103261357Y-65712141D01*
X103497624Y-65860352D01*
X103497628Y-65860354D01*
X103501264Y-65862635D01*
X103763293Y-65980945D01*
X103825751Y-65999446D01*
X104034841Y-66061382D01*
X104034846Y-66061383D01*
X104038954Y-66062600D01*
X104043188Y-66063248D01*
X104043193Y-66063249D01*
X104296037Y-66101940D01*
X104323147Y-66106088D01*
X104469498Y-66108387D01*
X104606321Y-66110537D01*
X104606327Y-66110537D01*
X104610612Y-66110604D01*
X104614864Y-66110089D01*
X104614872Y-66110089D01*
X104836529Y-66083265D01*
X104896030Y-66076064D01*
X104900179Y-66074976D01*
X104900182Y-66074975D01*
X105169970Y-66004198D01*
X105174121Y-66003109D01*
X105439736Y-65893087D01*
X105488827Y-65864401D01*
X105684255Y-65750202D01*
X105684257Y-65750200D01*
X105687963Y-65748035D01*
X105914208Y-65570637D01*
X105928329Y-65556066D01*
X106111300Y-65367253D01*
X106114283Y-65364175D01*
X106116816Y-65360727D01*
X106116820Y-65360722D01*
X106281949Y-65135925D01*
X106284487Y-65132470D01*
X106315224Y-65075859D01*
X106419621Y-64883585D01*
X106419622Y-64883583D01*
X106421671Y-64879809D01*
X106472483Y-64745339D01*
X106509443Y-64647528D01*
X111152121Y-64647528D01*
X111165018Y-64916010D01*
X111165931Y-64920600D01*
X111207325Y-65128702D01*
X111217456Y-65179637D01*
X111219035Y-65184035D01*
X111219037Y-65184042D01*
X111267680Y-65319522D01*
X111308285Y-65432617D01*
X111435510Y-65669393D01*
X111438301Y-65673130D01*
X111438305Y-65673137D01*
X111519944Y-65782464D01*
X111596334Y-65884763D01*
X111599643Y-65888043D01*
X111599648Y-65888049D01*
X111716816Y-66004198D01*
X111787226Y-66073996D01*
X111790988Y-66076754D01*
X111790991Y-66076757D01*
X112000224Y-66230173D01*
X112003991Y-66232935D01*
X112008122Y-66235109D01*
X112008123Y-66235109D01*
X112237734Y-66355913D01*
X112237740Y-66355915D01*
X112241869Y-66358088D01*
X112246276Y-66359627D01*
X112246283Y-66359630D01*
X112421053Y-66420662D01*
X112495632Y-66446706D01*
X112759706Y-66496843D01*
X112887198Y-66501852D01*
X113023622Y-66507212D01*
X113023627Y-66507212D01*
X113028290Y-66507395D01*
X113112656Y-66498156D01*
X113290831Y-66478643D01*
X113290837Y-66478642D01*
X113295484Y-66478133D01*
X113300008Y-66476942D01*
X113550895Y-66410889D01*
X113550897Y-66410888D01*
X113555418Y-66409698D01*
X113671954Y-66359630D01*
X113798087Y-66305439D01*
X113798089Y-66305438D01*
X113802381Y-66303594D01*
X113970663Y-66199458D01*
X114026976Y-66164611D01*
X114026980Y-66164608D01*
X114030949Y-66162152D01*
X114091919Y-66110537D01*
X114232532Y-65991500D01*
X114232534Y-65991498D01*
X114236099Y-65988480D01*
X114413325Y-65786392D01*
X114436604Y-65750202D01*
X114556207Y-65564257D01*
X114558735Y-65560327D01*
X114669133Y-65315254D01*
X114707381Y-65179637D01*
X114721745Y-65128702D01*
X114742093Y-65056554D01*
X114754052Y-64962548D01*
X116232000Y-64962548D01*
X116232000Y-65992743D01*
X116232161Y-65997250D01*
X116236740Y-66061269D01*
X116239126Y-66074491D01*
X116275819Y-66199458D01*
X116283233Y-66215692D01*
X116352426Y-66323360D01*
X116364112Y-66336847D01*
X116460840Y-66420662D01*
X116475848Y-66430307D01*
X116592275Y-66483477D01*
X116609388Y-66488502D01*
X116740554Y-66507361D01*
X116749495Y-66508000D01*
X117772885Y-66508000D01*
X117788124Y-66503525D01*
X117789329Y-66502135D01*
X117791000Y-66494452D01*
X117791000Y-64967115D01*
X117789659Y-64962548D01*
X118299000Y-64962548D01*
X118299000Y-66489885D01*
X118303475Y-66505124D01*
X118304865Y-66506329D01*
X118312548Y-66508000D01*
X119342743Y-66508000D01*
X119347250Y-66507839D01*
X119411269Y-66503260D01*
X119424491Y-66500874D01*
X119549458Y-66464181D01*
X119565692Y-66456767D01*
X119673360Y-66387574D01*
X119686847Y-66375888D01*
X119770662Y-66279160D01*
X119780307Y-66264152D01*
X119833477Y-66147725D01*
X119838502Y-66130612D01*
X119857361Y-65999446D01*
X119858000Y-65990503D01*
X119858000Y-64967115D01*
X119853525Y-64951876D01*
X119852135Y-64950671D01*
X119844452Y-64949000D01*
X118317115Y-64949000D01*
X118301876Y-64953475D01*
X118300671Y-64954865D01*
X118299000Y-64962548D01*
X117789659Y-64962548D01*
X117786525Y-64951876D01*
X117785135Y-64950671D01*
X117777452Y-64949000D01*
X116250115Y-64949000D01*
X116234876Y-64953475D01*
X116233671Y-64954865D01*
X116232000Y-64962548D01*
X114754052Y-64962548D01*
X114764578Y-64879809D01*
X114775617Y-64793041D01*
X114775617Y-64793037D01*
X114776015Y-64789911D01*
X114778500Y-64695000D01*
X114774626Y-64642874D01*
X114758926Y-64431600D01*
X114758925Y-64431596D01*
X114758580Y-64426948D01*
X114699259Y-64164784D01*
X114601838Y-63914268D01*
X114599520Y-63910212D01*
X114470779Y-63684961D01*
X114470777Y-63684959D01*
X114468460Y-63680904D01*
X114302052Y-63469817D01*
X114227298Y-63399495D01*
X116232000Y-63399495D01*
X116232000Y-64422885D01*
X116236475Y-64438124D01*
X116237865Y-64439329D01*
X116245548Y-64441000D01*
X117772885Y-64441000D01*
X117788124Y-64436525D01*
X117789329Y-64435135D01*
X117791000Y-64427452D01*
X117791000Y-62900115D01*
X117789659Y-62895548D01*
X118299000Y-62895548D01*
X118299000Y-64422885D01*
X118303475Y-64438124D01*
X118304865Y-64439329D01*
X118312548Y-64441000D01*
X119839885Y-64441000D01*
X119855124Y-64436525D01*
X119856329Y-64435135D01*
X119858000Y-64427452D01*
X119858000Y-63977868D01*
X132886616Y-63977868D01*
X132903166Y-64264892D01*
X132903991Y-64269097D01*
X132903992Y-64269105D01*
X132934163Y-64422885D01*
X132958516Y-64547014D01*
X132959903Y-64551065D01*
X133010265Y-64698160D01*
X133051642Y-64819014D01*
X133053568Y-64822843D01*
X133171113Y-65056554D01*
X133180822Y-65075859D01*
X133343664Y-65312796D01*
X133537155Y-65525440D01*
X133757716Y-65709857D01*
X133761357Y-65712141D01*
X133997624Y-65860352D01*
X133997628Y-65860354D01*
X134001264Y-65862635D01*
X134263293Y-65980945D01*
X134325751Y-65999446D01*
X134534841Y-66061382D01*
X134534846Y-66061383D01*
X134538954Y-66062600D01*
X134543188Y-66063248D01*
X134543193Y-66063249D01*
X134796037Y-66101940D01*
X134823147Y-66106088D01*
X134969498Y-66108387D01*
X135106321Y-66110537D01*
X135106327Y-66110537D01*
X135110612Y-66110604D01*
X135114864Y-66110089D01*
X135114872Y-66110089D01*
X135336529Y-66083265D01*
X135396030Y-66076064D01*
X135400179Y-66074976D01*
X135400182Y-66074975D01*
X135669970Y-66004198D01*
X135674121Y-66003109D01*
X135939736Y-65893087D01*
X135988827Y-65864401D01*
X136184255Y-65750202D01*
X136184257Y-65750200D01*
X136187963Y-65748035D01*
X136414208Y-65570637D01*
X136428329Y-65556066D01*
X136611300Y-65367253D01*
X136614283Y-65364175D01*
X136616816Y-65360727D01*
X136616820Y-65360722D01*
X136781949Y-65135925D01*
X136784487Y-65132470D01*
X136815224Y-65075859D01*
X136919621Y-64883585D01*
X136919622Y-64883583D01*
X136921671Y-64879809D01*
X136972483Y-64745339D01*
X137021777Y-64614887D01*
X137021778Y-64614883D01*
X137023295Y-64610869D01*
X137062200Y-64441000D01*
X137086521Y-64334808D01*
X137086522Y-64334804D01*
X137087479Y-64330624D01*
X137092970Y-64269105D01*
X137112816Y-64046728D01*
X137112816Y-64046726D01*
X137113036Y-64044262D01*
X137113500Y-64000000D01*
X137111700Y-63973597D01*
X137094238Y-63717442D01*
X137094237Y-63717436D01*
X137093946Y-63713165D01*
X137089409Y-63691254D01*
X137044310Y-63473485D01*
X137035644Y-63431638D01*
X136939674Y-63160628D01*
X136807812Y-62905150D01*
X136642498Y-62669931D01*
X136639573Y-62666783D01*
X136449711Y-62462468D01*
X136449708Y-62462466D01*
X136446790Y-62459325D01*
X136443474Y-62456611D01*
X136443471Y-62456608D01*
X136227629Y-62279942D01*
X136227622Y-62279937D01*
X136224311Y-62277227D01*
X135979176Y-62127009D01*
X135975240Y-62125281D01*
X135719851Y-62013172D01*
X135719847Y-62013171D01*
X135715923Y-62011448D01*
X135439421Y-61932685D01*
X135228794Y-61902708D01*
X135159041Y-61892781D01*
X135159039Y-61892781D01*
X135154789Y-61892176D01*
X135003976Y-61891387D01*
X134871579Y-61890693D01*
X134871573Y-61890693D01*
X134867292Y-61890671D01*
X134863048Y-61891230D01*
X134863044Y-61891230D01*
X134737864Y-61907710D01*
X134582251Y-61928197D01*
X134578111Y-61929330D01*
X134578109Y-61929330D01*
X134561547Y-61933861D01*
X134304940Y-62004061D01*
X134283580Y-62013172D01*
X134044433Y-62115176D01*
X134044426Y-62115180D01*
X134040491Y-62116858D01*
X134036810Y-62119061D01*
X133797479Y-62262297D01*
X133797475Y-62262300D01*
X133793797Y-62264501D01*
X133790454Y-62267179D01*
X133790450Y-62267182D01*
X133680922Y-62354931D01*
X133569423Y-62444259D01*
X133566479Y-62447361D01*
X133566475Y-62447365D01*
X133552143Y-62462468D01*
X133371520Y-62652804D01*
X133203752Y-62886279D01*
X133069222Y-63140362D01*
X132970419Y-63410352D01*
X132909173Y-63691254D01*
X132908837Y-63695524D01*
X132894973Y-63871688D01*
X132886616Y-63977868D01*
X119858000Y-63977868D01*
X119858000Y-63397257D01*
X119857839Y-63392750D01*
X119853260Y-63328731D01*
X119850874Y-63315509D01*
X119814181Y-63190542D01*
X119806767Y-63174308D01*
X119737574Y-63066640D01*
X119725888Y-63053153D01*
X119629160Y-62969338D01*
X119614152Y-62959693D01*
X119497725Y-62906523D01*
X119480612Y-62901498D01*
X119349446Y-62882639D01*
X119340505Y-62882000D01*
X118317115Y-62882000D01*
X118301876Y-62886475D01*
X118300671Y-62887865D01*
X118299000Y-62895548D01*
X117789659Y-62895548D01*
X117786525Y-62884876D01*
X117785135Y-62883671D01*
X117777452Y-62882000D01*
X116747257Y-62882000D01*
X116742750Y-62882161D01*
X116678731Y-62886740D01*
X116665509Y-62889126D01*
X116540542Y-62925819D01*
X116524308Y-62933233D01*
X116416640Y-63002426D01*
X116403153Y-63014112D01*
X116319338Y-63110840D01*
X116309693Y-63125848D01*
X116256523Y-63242275D01*
X116251498Y-63259388D01*
X116232639Y-63390554D01*
X116232000Y-63399495D01*
X114227298Y-63399495D01*
X114106273Y-63285646D01*
X113885421Y-63132436D01*
X113724652Y-63053153D01*
X113648535Y-63015616D01*
X113648531Y-63015615D01*
X113644349Y-63013552D01*
X113388353Y-62931607D01*
X113225900Y-62905150D01*
X113127669Y-62889152D01*
X113127668Y-62889152D01*
X113123057Y-62888401D01*
X112988673Y-62886642D01*
X112858965Y-62884944D01*
X112858962Y-62884944D01*
X112854288Y-62884883D01*
X112587952Y-62921129D01*
X112583462Y-62922438D01*
X112583456Y-62922439D01*
X112473555Y-62954473D01*
X112329899Y-62996345D01*
X112325652Y-62998303D01*
X112325649Y-62998304D01*
X112292574Y-63013552D01*
X112085798Y-63108877D01*
X112081889Y-63111440D01*
X111864924Y-63253688D01*
X111864919Y-63253692D01*
X111861011Y-63256254D01*
X111857519Y-63259371D01*
X111669034Y-63427600D01*
X111660477Y-63435237D01*
X111488602Y-63641895D01*
X111349160Y-63871688D01*
X111347351Y-63876002D01*
X111347350Y-63876004D01*
X111276794Y-64044262D01*
X111245215Y-64119568D01*
X111244064Y-64124100D01*
X111244063Y-64124103D01*
X111232574Y-64169341D01*
X111179051Y-64380089D01*
X111152121Y-64647528D01*
X106509443Y-64647528D01*
X106521777Y-64614887D01*
X106521778Y-64614883D01*
X106523295Y-64610869D01*
X106562200Y-64441000D01*
X106586521Y-64334808D01*
X106586522Y-64334804D01*
X106587479Y-64330624D01*
X106592970Y-64269105D01*
X106612816Y-64046728D01*
X106612816Y-64046726D01*
X106613036Y-64044262D01*
X106613500Y-64000000D01*
X106611700Y-63973597D01*
X106594238Y-63717442D01*
X106594237Y-63717436D01*
X106593946Y-63713165D01*
X106589409Y-63691254D01*
X106544310Y-63473485D01*
X106535644Y-63431638D01*
X106439674Y-63160628D01*
X106307812Y-62905150D01*
X106142498Y-62669931D01*
X106139573Y-62666783D01*
X105949711Y-62462468D01*
X105949708Y-62462466D01*
X105946790Y-62459325D01*
X105943474Y-62456611D01*
X105943471Y-62456608D01*
X105727629Y-62279942D01*
X105727622Y-62279937D01*
X105724311Y-62277227D01*
X105479176Y-62127009D01*
X105475240Y-62125281D01*
X105219851Y-62013172D01*
X105219847Y-62013171D01*
X105215923Y-62011448D01*
X104939421Y-61932685D01*
X104728794Y-61902708D01*
X104659041Y-61892781D01*
X104659039Y-61892781D01*
X104654789Y-61892176D01*
X104503976Y-61891387D01*
X104371579Y-61890693D01*
X104371573Y-61890693D01*
X104367292Y-61890671D01*
X104363048Y-61891230D01*
X104363044Y-61891230D01*
X104237864Y-61907710D01*
X104082251Y-61928197D01*
X104078111Y-61929330D01*
X104078109Y-61929330D01*
X104061547Y-61933861D01*
X103804940Y-62004061D01*
X103783580Y-62013172D01*
X103544433Y-62115176D01*
X103544426Y-62115180D01*
X103540491Y-62116858D01*
X103536810Y-62119061D01*
X103297479Y-62262297D01*
X103297475Y-62262300D01*
X103293797Y-62264501D01*
X103290454Y-62267179D01*
X103290450Y-62267182D01*
X103180922Y-62354931D01*
X103069423Y-62444259D01*
X103066479Y-62447361D01*
X103066475Y-62447365D01*
X103052143Y-62462468D01*
X102871520Y-62652804D01*
X102703752Y-62886279D01*
X102569222Y-63140362D01*
X102470419Y-63410352D01*
X102409173Y-63691254D01*
X102408837Y-63695524D01*
X102394973Y-63871688D01*
X102386616Y-63977868D01*
X100508000Y-63977868D01*
X100508000Y-60634000D01*
X100528002Y-60565879D01*
X100581658Y-60519386D01*
X100634000Y-60508000D01*
X139366000Y-60508000D01*
X139434121Y-60528002D01*
G37*
%TD.AperFunction*%
%TD*%
M02*
