%TF.GenerationSoftware,KiCad,Pcbnew,(5.99.0-10209-gdc0cf3b802)*%
%TF.CreationDate,2021-04-10T19:11:07+02:00*%
%TF.ProjectId,BUCK_LMR33630,4255434b-5f4c-44d5-9233-333633302e6b,rev?*%
%TF.SameCoordinates,Original*%
%TF.FileFunction,Copper,L1,Top*%
%TF.FilePolarity,Positive*%
%FSLAX46Y46*%
G04 Gerber Fmt 4.6, Leading zero omitted, Abs format (unit mm)*
G04 Created by KiCad (PCBNEW (5.99.0-10209-gdc0cf3b802)) date 2021-04-10 19:11:07*
%MOMM*%
%LPD*%
G01*
G04 APERTURE LIST*
G04 Aperture macros list*
%AMRoundRect*
0 Rectangle with rounded corners*
0 $1 Rounding radius*
0 $2 $3 $4 $5 $6 $7 $8 $9 X,Y pos of 4 corners*
0 Add a 4 corners polygon primitive as box body*
4,1,4,$2,$3,$4,$5,$6,$7,$8,$9,$2,$3,0*
0 Add four circle primitives for the rounded corners*
1,1,$1+$1,$2,$3*
1,1,$1+$1,$4,$5*
1,1,$1+$1,$6,$7*
1,1,$1+$1,$8,$9*
0 Add four rect primitives between the rounded corners*
20,1,$1+$1,$2,$3,$4,$5,0*
20,1,$1+$1,$4,$5,$6,$7,0*
20,1,$1+$1,$6,$7,$8,$9,0*
20,1,$1+$1,$8,$9,$2,$3,0*%
G04 Aperture macros list end*
%TA.AperFunction,SMDPad,CuDef*%
%ADD10RoundRect,0.250000X-0.650000X0.412500X-0.650000X-0.412500X0.650000X-0.412500X0.650000X0.412500X0*%
%TD*%
%TA.AperFunction,SMDPad,CuDef*%
%ADD11RoundRect,0.250000X0.400000X0.625000X-0.400000X0.625000X-0.400000X-0.625000X0.400000X-0.625000X0*%
%TD*%
%TA.AperFunction,SMDPad,CuDef*%
%ADD12RoundRect,0.250000X0.650000X-0.412500X0.650000X0.412500X-0.650000X0.412500X-0.650000X-0.412500X0*%
%TD*%
%TA.AperFunction,SMDPad,CuDef*%
%ADD13RoundRect,0.250000X-0.412500X-0.650000X0.412500X-0.650000X0.412500X0.650000X-0.412500X0.650000X0*%
%TD*%
%TA.AperFunction,ComponentPad*%
%ADD14R,2.600000X2.600000*%
%TD*%
%TA.AperFunction,ComponentPad*%
%ADD15C,2.600000*%
%TD*%
%TA.AperFunction,SMDPad,CuDef*%
%ADD16R,1.550000X0.600000*%
%TD*%
%TA.AperFunction,ComponentPad*%
%ADD17C,0.600000*%
%TD*%
%TA.AperFunction,SMDPad,CuDef*%
%ADD18R,2.950000X4.900000*%
%TD*%
%TA.AperFunction,SMDPad,CuDef*%
%ADD19R,1.800000X3.600000*%
%TD*%
%TA.AperFunction,SMDPad,CuDef*%
%ADD20RoundRect,0.250000X-0.400000X-0.625000X0.400000X-0.625000X0.400000X0.625000X-0.400000X0.625000X0*%
%TD*%
%TA.AperFunction,ViaPad*%
%ADD21C,0.800000*%
%TD*%
%TA.AperFunction,Conductor*%
%ADD22C,1.500000*%
%TD*%
%TA.AperFunction,Conductor*%
%ADD23C,0.600000*%
%TD*%
%TA.AperFunction,Conductor*%
%ADD24C,0.400000*%
%TD*%
%TA.AperFunction,Conductor*%
%ADD25C,0.250000*%
%TD*%
G04 APERTURE END LIST*
D10*
%TO.P,C7,1*%
%TO.N,VOUT*%
X117400000Y-78157500D03*
%TO.P,C7,2*%
%TO.N,GND*%
X117400000Y-81282500D03*
%TD*%
%TO.P,C8,1*%
%TO.N,VOUT*%
X119900000Y-78157500D03*
%TO.P,C8,2*%
%TO.N,GND*%
X119900000Y-81282500D03*
%TD*%
%TO.P,C4,1*%
%TO.N,Net-(C4-Pad1)*%
X133400000Y-81337500D03*
%TO.P,C4,2*%
%TO.N,Net-(C4-Pad2)*%
X133400000Y-84462500D03*
%TD*%
D11*
%TO.P,R2,1*%
%TO.N,Net-(R1-Pad2)*%
X130550000Y-88500000D03*
%TO.P,R2,2*%
%TO.N,GND*%
X127450000Y-88500000D03*
%TD*%
D12*
%TO.P,C1,1*%
%TO.N,VIN*%
X119900000Y-86362500D03*
%TO.P,C1,2*%
%TO.N,GND*%
X119900000Y-83237500D03*
%TD*%
D13*
%TO.P,C3,1*%
%TO.N,Net-(C3-Pad1)*%
X133137500Y-86700000D03*
%TO.P,C3,2*%
%TO.N,GND*%
X136262500Y-86700000D03*
%TD*%
D14*
%TO.P,J2,1,Pin_1*%
%TO.N,GND*%
X118045000Y-64695000D03*
D15*
%TO.P,J2,2,Pin_2*%
%TO.N,VOUT*%
X112965000Y-64695000D03*
%TD*%
D10*
%TO.P,C5,1*%
%TO.N,VOUT*%
X112400000Y-78157500D03*
%TO.P,C5,2*%
%TO.N,GND*%
X112400000Y-81282500D03*
%TD*%
D16*
%TO.P,U1,1,PGND*%
%TO.N,GND*%
X125400000Y-82395000D03*
%TO.P,U1,2,VIN*%
%TO.N,VIN*%
X125400000Y-83665000D03*
%TO.P,U1,3,EN*%
X125400000Y-84935000D03*
%TO.P,U1,4,PG*%
%TO.N,unconnected-(U1-Pad4)*%
X125400000Y-86205000D03*
%TO.P,U1,5,FB*%
%TO.N,Net-(R1-Pad2)*%
X130800000Y-86205000D03*
%TO.P,U1,6,VCC*%
%TO.N,Net-(C3-Pad1)*%
X130800000Y-84935000D03*
%TO.P,U1,7,BOOT*%
%TO.N,Net-(C4-Pad2)*%
X130800000Y-83665000D03*
%TO.P,U1,8,SW*%
%TO.N,Net-(C4-Pad1)*%
X130800000Y-82395000D03*
D17*
%TO.P,U1,9,AGND*%
%TO.N,GND*%
X128750000Y-84950000D03*
X127450000Y-86250000D03*
X127450000Y-83650000D03*
X127450000Y-84950000D03*
D18*
X128100000Y-84300000D03*
D17*
X127450000Y-82350000D03*
X128750000Y-86250000D03*
X128750000Y-83650000D03*
X128750000Y-82350000D03*
%TD*%
D19*
%TO.P,L1,1,1*%
%TO.N,Net-(C4-Pad1)*%
X132500000Y-75000000D03*
%TO.P,L1,2,2*%
%TO.N,VOUT*%
X123500000Y-75000000D03*
%TD*%
D10*
%TO.P,C6,1*%
%TO.N,VOUT*%
X114900000Y-78157500D03*
%TO.P,C6,2*%
%TO.N,GND*%
X114900000Y-81282500D03*
%TD*%
D12*
%TO.P,C2,1*%
%TO.N,VIN*%
X122500000Y-84562500D03*
%TO.P,C2,2*%
%TO.N,GND*%
X122500000Y-81437500D03*
%TD*%
D20*
%TO.P,R1,1*%
%TO.N,VOUT*%
X127450000Y-91000000D03*
%TO.P,R1,2*%
%TO.N,Net-(R1-Pad2)*%
X130550000Y-91000000D03*
%TD*%
D14*
%TO.P,J1,1,Pin_1*%
%TO.N,VIN*%
X117455000Y-95305000D03*
D15*
%TO.P,J1,2,Pin_2*%
%TO.N,GND*%
X122535000Y-95305000D03*
%TD*%
D21*
%TO.N,GND*%
X121000000Y-88200000D03*
X114900000Y-82800000D03*
X136300000Y-88200000D03*
X123500000Y-86600000D03*
X137800000Y-86700000D03*
X116100000Y-76200000D03*
X117400000Y-82900000D03*
X124000000Y-91100000D03*
X112400000Y-82900000D03*
X119800000Y-76200000D03*
X124200000Y-80900000D03*
X110500000Y-76300000D03*
X136300000Y-85000000D03*
X126300000Y-88500000D03*
%TO.N,VOUT*%
X126000000Y-91000000D03*
X122000000Y-77000000D03*
%TD*%
D22*
%TO.N,Net-(C4-Pad1)*%
X132500000Y-79500000D02*
X133400000Y-80400000D01*
X132500000Y-75000000D02*
X132500000Y-79500000D01*
X133400000Y-80400000D02*
X133400000Y-81337500D01*
D23*
%TO.N,Net-(C4-Pad2)*%
X132602500Y-83665000D02*
X133400000Y-84462500D01*
X130800000Y-83665000D02*
X132602500Y-83665000D01*
%TO.N,Net-(C4-Pad1)*%
X130800000Y-82395000D02*
X132342500Y-82395000D01*
X132342500Y-82395000D02*
X133400000Y-81337500D01*
D24*
%TO.N,Net-(C3-Pad1)*%
X130800000Y-84935000D02*
X131372500Y-84935000D01*
X131372500Y-84935000D02*
X133137500Y-86700000D01*
D22*
%TO.N,VOUT*%
X123500000Y-75620000D02*
X122365000Y-76755000D01*
X120962500Y-78157500D02*
X119900000Y-78157500D01*
X123500000Y-75000000D02*
X123500000Y-75620000D01*
X123500000Y-75620000D02*
X120962500Y-78157500D01*
D25*
%TO.N,GND*%
X123457500Y-82395000D02*
X122500000Y-81437500D01*
X119900000Y-81282500D02*
X119900000Y-83237500D01*
X122345000Y-81282500D02*
X122500000Y-81437500D01*
X125400000Y-82395000D02*
X123457500Y-82395000D01*
X112400000Y-81282500D02*
X122345000Y-81282500D01*
D24*
X127450000Y-88500000D02*
X126300000Y-88500000D01*
%TO.N,Net-(R1-Pad2)*%
X130800000Y-86205000D02*
X130800000Y-87750000D01*
X130550000Y-88500000D02*
X130550000Y-91000000D01*
D23*
%TO.N,VIN*%
X122500000Y-84562500D02*
X123862500Y-84562500D01*
X119900000Y-86362500D02*
X120700000Y-86362500D01*
X117455000Y-88807500D02*
X119900000Y-86362500D01*
X123862500Y-84562500D02*
X124235000Y-84935000D01*
X117455000Y-95305000D02*
X117455000Y-88807500D01*
X120700000Y-86362500D02*
X122500000Y-84562500D01*
D24*
X125400000Y-83665000D02*
X125400000Y-84935000D01*
D23*
X124235000Y-84935000D02*
X125400000Y-84935000D01*
D22*
%TO.N,VOUT*%
X119900000Y-78157500D02*
X113457500Y-78157500D01*
X112965000Y-77665000D02*
X113457500Y-78157500D01*
X113457500Y-78157500D02*
X112400000Y-78157500D01*
D24*
X127450000Y-91000000D02*
X126000000Y-91000000D01*
D22*
X112965000Y-64695000D02*
X112965000Y-77665000D01*
%TD*%
%TA.AperFunction,Conductor*%
%TO.N,GND*%
G36*
X139434121Y-60528002D02*
G01*
X139480614Y-60581658D01*
X139492000Y-60634000D01*
X139492000Y-99366000D01*
X139471998Y-99434121D01*
X139418342Y-99480614D01*
X139366000Y-99492000D01*
X100634000Y-99492000D01*
X100565879Y-99471998D01*
X100519386Y-99418342D01*
X100508000Y-99366000D01*
X100508000Y-95977868D01*
X101886616Y-95977868D01*
X101903166Y-96264892D01*
X101903991Y-96269097D01*
X101903992Y-96269105D01*
X101906692Y-96282866D01*
X101958516Y-96547014D01*
X101959903Y-96551065D01*
X102034426Y-96768729D01*
X102051642Y-96819014D01*
X102053568Y-96822843D01*
X102176480Y-97067225D01*
X102180822Y-97075859D01*
X102343664Y-97312796D01*
X102537155Y-97525440D01*
X102757716Y-97709857D01*
X102761357Y-97712141D01*
X102997624Y-97860352D01*
X102997628Y-97860354D01*
X103001264Y-97862635D01*
X103263293Y-97980945D01*
X103267412Y-97982165D01*
X103534841Y-98061382D01*
X103534846Y-98061383D01*
X103538954Y-98062600D01*
X103543188Y-98063248D01*
X103543193Y-98063249D01*
X103796037Y-98101940D01*
X103823147Y-98106088D01*
X103969498Y-98108387D01*
X104106321Y-98110537D01*
X104106327Y-98110537D01*
X104110612Y-98110604D01*
X104114864Y-98110089D01*
X104114872Y-98110089D01*
X104336529Y-98083265D01*
X104396030Y-98076064D01*
X104400179Y-98074976D01*
X104400182Y-98074975D01*
X104669970Y-98004198D01*
X104674121Y-98003109D01*
X104939736Y-97893087D01*
X104988827Y-97864401D01*
X105184255Y-97750202D01*
X105184257Y-97750200D01*
X105187963Y-97748035D01*
X105414208Y-97570637D01*
X105614283Y-97364175D01*
X105616816Y-97360727D01*
X105616820Y-97360722D01*
X105781949Y-97135925D01*
X105784487Y-97132470D01*
X105792419Y-97117861D01*
X105919621Y-96883585D01*
X105919622Y-96883583D01*
X105921671Y-96879809D01*
X105995449Y-96684562D01*
X106021777Y-96614887D01*
X106021778Y-96614883D01*
X106023295Y-96610869D01*
X106075632Y-96382350D01*
X106086521Y-96334808D01*
X106086522Y-96334804D01*
X106087479Y-96330624D01*
X106091742Y-96282866D01*
X106112816Y-96046728D01*
X106112816Y-96046726D01*
X106113036Y-96044262D01*
X106113500Y-96000000D01*
X106108684Y-95929351D01*
X106094238Y-95717442D01*
X106094237Y-95717436D01*
X106093946Y-95713165D01*
X106089409Y-95691254D01*
X106056125Y-95530537D01*
X106035644Y-95431638D01*
X105939674Y-95160628D01*
X105807812Y-94905150D01*
X105642498Y-94669931D01*
X105639573Y-94666783D01*
X105449711Y-94462468D01*
X105449708Y-94462466D01*
X105446790Y-94459325D01*
X105443474Y-94456611D01*
X105443471Y-94456608D01*
X105227629Y-94279942D01*
X105227622Y-94279937D01*
X105224311Y-94277227D01*
X104979176Y-94127009D01*
X104975240Y-94125281D01*
X104719851Y-94013172D01*
X104719847Y-94013171D01*
X104715923Y-94011448D01*
X104693287Y-94005000D01*
X115641500Y-94005000D01*
X115641500Y-96605000D01*
X115646727Y-96678079D01*
X115687904Y-96818316D01*
X115692775Y-96825895D01*
X115762051Y-96933691D01*
X115762053Y-96933694D01*
X115766923Y-96941271D01*
X115773733Y-96947172D01*
X115870569Y-97031082D01*
X115870572Y-97031084D01*
X115877381Y-97036984D01*
X115885579Y-97040728D01*
X115985703Y-97086453D01*
X116010330Y-97097700D01*
X116019245Y-97098982D01*
X116019246Y-97098982D01*
X116150552Y-97117861D01*
X116150559Y-97117862D01*
X116155000Y-97118500D01*
X118755000Y-97118500D01*
X118828079Y-97113273D01*
X118919420Y-97086453D01*
X118959670Y-97074635D01*
X118959672Y-97074634D01*
X118968316Y-97072096D01*
X119032135Y-97031082D01*
X119083691Y-96997949D01*
X119083694Y-96997947D01*
X119091271Y-96993077D01*
X119097172Y-96986267D01*
X119181082Y-96889431D01*
X119181084Y-96889428D01*
X119186984Y-96882619D01*
X119204305Y-96844692D01*
X119243958Y-96757864D01*
X119243958Y-96757863D01*
X119247615Y-96749856D01*
X121454889Y-96749856D01*
X121463603Y-96761376D01*
X121570482Y-96839744D01*
X121578401Y-96844692D01*
X121807918Y-96965447D01*
X121816492Y-96969175D01*
X122061345Y-97054682D01*
X122070354Y-97057096D01*
X122325174Y-97105475D01*
X122334431Y-97106529D01*
X122593605Y-97116713D01*
X122602918Y-97116387D01*
X122860752Y-97088149D01*
X122869906Y-97086453D01*
X123120732Y-97020416D01*
X123129552Y-97017379D01*
X123367856Y-96914996D01*
X123376128Y-96910689D01*
X123596678Y-96774209D01*
X123604222Y-96768729D01*
X123609511Y-96764251D01*
X123617948Y-96751450D01*
X123611883Y-96741093D01*
X122547812Y-95677022D01*
X122533868Y-95669408D01*
X122532035Y-95669539D01*
X122525420Y-95673790D01*
X121461547Y-96737663D01*
X121454889Y-96749856D01*
X119247615Y-96749856D01*
X119247700Y-96749670D01*
X119258962Y-96671340D01*
X119267861Y-96609448D01*
X119267862Y-96609441D01*
X119268500Y-96605000D01*
X119268500Y-95262212D01*
X120722845Y-95262212D01*
X120735290Y-95521277D01*
X120736427Y-95530537D01*
X120787025Y-95784915D01*
X120789519Y-95793908D01*
X120877159Y-96038005D01*
X120880959Y-96046540D01*
X121003717Y-96275004D01*
X121008725Y-96282866D01*
X121078770Y-96376666D01*
X121090029Y-96385115D01*
X121102447Y-96378343D01*
X122162978Y-95317812D01*
X122169356Y-95306132D01*
X122899408Y-95306132D01*
X122899539Y-95307965D01*
X122903790Y-95314580D01*
X123971044Y-96381834D01*
X123983424Y-96388594D01*
X123991765Y-96382350D01*
X124125767Y-96174020D01*
X124130213Y-96165830D01*
X124214884Y-95977868D01*
X132886616Y-95977868D01*
X132903166Y-96264892D01*
X132903991Y-96269097D01*
X132903992Y-96269105D01*
X132906692Y-96282866D01*
X132958516Y-96547014D01*
X132959903Y-96551065D01*
X133034426Y-96768729D01*
X133051642Y-96819014D01*
X133053568Y-96822843D01*
X133176480Y-97067225D01*
X133180822Y-97075859D01*
X133343664Y-97312796D01*
X133537155Y-97525440D01*
X133757716Y-97709857D01*
X133761357Y-97712141D01*
X133997624Y-97860352D01*
X133997628Y-97860354D01*
X134001264Y-97862635D01*
X134263293Y-97980945D01*
X134267412Y-97982165D01*
X134534841Y-98061382D01*
X134534846Y-98061383D01*
X134538954Y-98062600D01*
X134543188Y-98063248D01*
X134543193Y-98063249D01*
X134796037Y-98101940D01*
X134823147Y-98106088D01*
X134969498Y-98108387D01*
X135106321Y-98110537D01*
X135106327Y-98110537D01*
X135110612Y-98110604D01*
X135114864Y-98110089D01*
X135114872Y-98110089D01*
X135336529Y-98083265D01*
X135396030Y-98076064D01*
X135400179Y-98074976D01*
X135400182Y-98074975D01*
X135669970Y-98004198D01*
X135674121Y-98003109D01*
X135939736Y-97893087D01*
X135988827Y-97864401D01*
X136184255Y-97750202D01*
X136184257Y-97750200D01*
X136187963Y-97748035D01*
X136414208Y-97570637D01*
X136614283Y-97364175D01*
X136616816Y-97360727D01*
X136616820Y-97360722D01*
X136781949Y-97135925D01*
X136784487Y-97132470D01*
X136792419Y-97117861D01*
X136919621Y-96883585D01*
X136919622Y-96883583D01*
X136921671Y-96879809D01*
X136995449Y-96684562D01*
X137021777Y-96614887D01*
X137021778Y-96614883D01*
X137023295Y-96610869D01*
X137075632Y-96382350D01*
X137086521Y-96334808D01*
X137086522Y-96334804D01*
X137087479Y-96330624D01*
X137091742Y-96282866D01*
X137112816Y-96046728D01*
X137112816Y-96046726D01*
X137113036Y-96044262D01*
X137113500Y-96000000D01*
X137108684Y-95929351D01*
X137094238Y-95717442D01*
X137094237Y-95717436D01*
X137093946Y-95713165D01*
X137089409Y-95691254D01*
X137056125Y-95530537D01*
X137035644Y-95431638D01*
X136939674Y-95160628D01*
X136807812Y-94905150D01*
X136642498Y-94669931D01*
X136639573Y-94666783D01*
X136449711Y-94462468D01*
X136449708Y-94462466D01*
X136446790Y-94459325D01*
X136443474Y-94456611D01*
X136443471Y-94456608D01*
X136227629Y-94279942D01*
X136227622Y-94279937D01*
X136224311Y-94277227D01*
X135979176Y-94127009D01*
X135975240Y-94125281D01*
X135719851Y-94013172D01*
X135719847Y-94013171D01*
X135715923Y-94011448D01*
X135439421Y-93932685D01*
X135228794Y-93902708D01*
X135159041Y-93892781D01*
X135159039Y-93892781D01*
X135154789Y-93892176D01*
X135003976Y-93891387D01*
X134871579Y-93890693D01*
X134871573Y-93890693D01*
X134867292Y-93890671D01*
X134863048Y-93891230D01*
X134863044Y-93891230D01*
X134737864Y-93907710D01*
X134582251Y-93928197D01*
X134578111Y-93929330D01*
X134578109Y-93929330D01*
X134309732Y-94002750D01*
X134304940Y-94004061D01*
X134283580Y-94013172D01*
X134044433Y-94115176D01*
X134044426Y-94115180D01*
X134040491Y-94116858D01*
X134036810Y-94119061D01*
X133797479Y-94262297D01*
X133797475Y-94262300D01*
X133793797Y-94264501D01*
X133790454Y-94267179D01*
X133790450Y-94267182D01*
X133755427Y-94295241D01*
X133569423Y-94444259D01*
X133566479Y-94447361D01*
X133566475Y-94447365D01*
X133489161Y-94528837D01*
X133371520Y-94652804D01*
X133203752Y-94886279D01*
X133069222Y-95140362D01*
X132970419Y-95410352D01*
X132909173Y-95691254D01*
X132886616Y-95977868D01*
X124214884Y-95977868D01*
X124236740Y-95929351D01*
X124239935Y-95920574D01*
X124310334Y-95670953D01*
X124312192Y-95661823D01*
X124345117Y-95403015D01*
X124345598Y-95396729D01*
X124347917Y-95308160D01*
X124347766Y-95301851D01*
X124328432Y-95041674D01*
X124327055Y-95032468D01*
X124269812Y-94779487D01*
X124267088Y-94770576D01*
X124173080Y-94528837D01*
X124169069Y-94520427D01*
X124040364Y-94295241D01*
X124035153Y-94287515D01*
X123991946Y-94232707D01*
X123980020Y-94224236D01*
X123968488Y-94230722D01*
X122907022Y-95292188D01*
X122899408Y-95306132D01*
X122169356Y-95306132D01*
X122170592Y-95303868D01*
X122170461Y-95302035D01*
X122166210Y-95295420D01*
X121100866Y-94230076D01*
X121087558Y-94222809D01*
X121077519Y-94229931D01*
X121061998Y-94248593D01*
X121056587Y-94256177D01*
X120922027Y-94477924D01*
X120917798Y-94486224D01*
X120817498Y-94725412D01*
X120814537Y-94734262D01*
X120750697Y-94985637D01*
X120749075Y-94994834D01*
X120723090Y-95252887D01*
X120722845Y-95262212D01*
X119268500Y-95262212D01*
X119268500Y-94005000D01*
X119263273Y-93931921D01*
X119241491Y-93857739D01*
X121452154Y-93857739D01*
X121456729Y-93867519D01*
X122522188Y-94932978D01*
X122536132Y-94940592D01*
X122537965Y-94940461D01*
X122544580Y-94936210D01*
X123609299Y-93871491D01*
X123615683Y-93859801D01*
X123606272Y-93847691D01*
X123459003Y-93745527D01*
X123450976Y-93740799D01*
X123218350Y-93626081D01*
X123209717Y-93622593D01*
X122962681Y-93543516D01*
X122953630Y-93541343D01*
X122697625Y-93499650D01*
X122688336Y-93498838D01*
X122428996Y-93495443D01*
X122419684Y-93496013D01*
X122162696Y-93530987D01*
X122153560Y-93532928D01*
X121904567Y-93605504D01*
X121895824Y-93608772D01*
X121660286Y-93717357D01*
X121652131Y-93721877D01*
X121461290Y-93846999D01*
X121452154Y-93857739D01*
X119241491Y-93857739D01*
X119222096Y-93791684D01*
X119197574Y-93753528D01*
X119147949Y-93676309D01*
X119147947Y-93676306D01*
X119143077Y-93668729D01*
X119093859Y-93626081D01*
X119039431Y-93578918D01*
X119039428Y-93578916D01*
X119032619Y-93573016D01*
X118899670Y-93512300D01*
X118890755Y-93511018D01*
X118890754Y-93511018D01*
X118759448Y-93492139D01*
X118759441Y-93492138D01*
X118755000Y-93491500D01*
X118389500Y-93491500D01*
X118321379Y-93471498D01*
X118274886Y-93417842D01*
X118263500Y-93365500D01*
X118263500Y-91000000D01*
X125086500Y-91000000D01*
X125106462Y-91189927D01*
X125165476Y-91371554D01*
X125260963Y-91536942D01*
X125388749Y-91678863D01*
X125394091Y-91682744D01*
X125394093Y-91682746D01*
X125500706Y-91760204D01*
X125543250Y-91791114D01*
X125549278Y-91793798D01*
X125549280Y-91793799D01*
X125711682Y-91866105D01*
X125717713Y-91868790D01*
X125804470Y-91887231D01*
X125898056Y-91907124D01*
X125898061Y-91907124D01*
X125904513Y-91908496D01*
X126095487Y-91908496D01*
X126101942Y-91907124D01*
X126101951Y-91907123D01*
X126220941Y-91881830D01*
X126291732Y-91887231D01*
X126348365Y-91930047D01*
X126361060Y-91953676D01*
X126361537Y-91953437D01*
X126364816Y-91959984D01*
X126367313Y-91966864D01*
X126464269Y-92114747D01*
X126592645Y-92236358D01*
X126745555Y-92325175D01*
X126914796Y-92376433D01*
X126921236Y-92377008D01*
X126921237Y-92377008D01*
X126991185Y-92383251D01*
X126991191Y-92383251D01*
X126993978Y-92383500D01*
X127892886Y-92383500D01*
X127988106Y-92372398D01*
X128018371Y-92368870D01*
X128018372Y-92368870D01*
X128025643Y-92368022D01*
X128032521Y-92365526D01*
X128032523Y-92365525D01*
X128184985Y-92310184D01*
X128191864Y-92307687D01*
X128339747Y-92210731D01*
X128461358Y-92082355D01*
X128550175Y-91929445D01*
X128601433Y-91760204D01*
X128608500Y-91681022D01*
X128608500Y-90332114D01*
X128597015Y-90233605D01*
X128593870Y-90206629D01*
X128593870Y-90206628D01*
X128593022Y-90199357D01*
X128554372Y-90092876D01*
X128535184Y-90040015D01*
X128532687Y-90033136D01*
X128435731Y-89885253D01*
X128389122Y-89841100D01*
X128353424Y-89779731D01*
X128356571Y-89708804D01*
X128384303Y-89662974D01*
X128455919Y-89587376D01*
X128464635Y-89575724D01*
X128546043Y-89435571D01*
X128551837Y-89422246D01*
X128599068Y-89266300D01*
X128601516Y-89253677D01*
X128607751Y-89183816D01*
X128608000Y-89178221D01*
X128608000Y-88772115D01*
X128603525Y-88756876D01*
X128602135Y-88755671D01*
X128594452Y-88754000D01*
X126310115Y-88754000D01*
X126294876Y-88758475D01*
X126293671Y-88759865D01*
X126292000Y-88767548D01*
X126292000Y-89164223D01*
X126292424Y-89171524D01*
X126306617Y-89293255D01*
X126309963Y-89307410D01*
X126365263Y-89459761D01*
X126371773Y-89472760D01*
X126460641Y-89608306D01*
X126469965Y-89619458D01*
X126510859Y-89658197D01*
X126546557Y-89719566D01*
X126543410Y-89790493D01*
X126515680Y-89836322D01*
X126438642Y-89917645D01*
X126371560Y-90033136D01*
X126356897Y-90058380D01*
X126305386Y-90107238D01*
X126235637Y-90120492D01*
X126221746Y-90118341D01*
X126101944Y-90092876D01*
X126101939Y-90092876D01*
X126095487Y-90091504D01*
X125904513Y-90091504D01*
X125898061Y-90092876D01*
X125898056Y-90092876D01*
X125830491Y-90107238D01*
X125717713Y-90131210D01*
X125711683Y-90133895D01*
X125711682Y-90133895D01*
X125549280Y-90206201D01*
X125549278Y-90206202D01*
X125543250Y-90208886D01*
X125537909Y-90212766D01*
X125537908Y-90212767D01*
X125394093Y-90317254D01*
X125394091Y-90317256D01*
X125388749Y-90321137D01*
X125260963Y-90463058D01*
X125165476Y-90628446D01*
X125106462Y-90810073D01*
X125086500Y-91000000D01*
X118263500Y-91000000D01*
X118263500Y-89194582D01*
X118283502Y-89126461D01*
X118300405Y-89105487D01*
X119835487Y-87570405D01*
X119897799Y-87536379D01*
X119924582Y-87533500D01*
X120592886Y-87533500D01*
X120688106Y-87522398D01*
X120718371Y-87518870D01*
X120718372Y-87518870D01*
X120725643Y-87518022D01*
X120732521Y-87515526D01*
X120732523Y-87515525D01*
X120884985Y-87460184D01*
X120891864Y-87457687D01*
X121039747Y-87360731D01*
X121161358Y-87232355D01*
X121250175Y-87079445D01*
X121294647Y-86932608D01*
X121324635Y-86882751D01*
X121324573Y-86882702D01*
X121324935Y-86882251D01*
X121326454Y-86879727D01*
X121333991Y-86872242D01*
X121334461Y-86871501D01*
X121335073Y-86870819D01*
X122435487Y-85770405D01*
X122497799Y-85736379D01*
X122524582Y-85733500D01*
X123192886Y-85733500D01*
X123288106Y-85722398D01*
X123318371Y-85718870D01*
X123318372Y-85718870D01*
X123325643Y-85718022D01*
X123332521Y-85715526D01*
X123332523Y-85715525D01*
X123484985Y-85660184D01*
X123491864Y-85657687D01*
X123607848Y-85581645D01*
X123675782Y-85561022D01*
X123745186Y-85581105D01*
X123757287Y-85588904D01*
X123767617Y-85596326D01*
X123801506Y-85623379D01*
X123831689Y-85637970D01*
X123845103Y-85645498D01*
X123867363Y-85659843D01*
X123873289Y-85663662D01*
X123879908Y-85666071D01*
X123879910Y-85666072D01*
X123896358Y-85672058D01*
X123914021Y-85678487D01*
X123925760Y-85683445D01*
X123935045Y-85687934D01*
X123958442Y-85699245D01*
X123958445Y-85699246D01*
X123964787Y-85702312D01*
X123997469Y-85709857D01*
X124012206Y-85714223D01*
X124036438Y-85723043D01*
X124093609Y-85765138D01*
X124118946Y-85831460D01*
X124118059Y-85859376D01*
X124112140Y-85900541D01*
X124112139Y-85900556D01*
X124111500Y-85905000D01*
X124111500Y-86505000D01*
X124116727Y-86578079D01*
X124157904Y-86718316D01*
X124162775Y-86725895D01*
X124232051Y-86833691D01*
X124232053Y-86833694D01*
X124236923Y-86841271D01*
X124243733Y-86847172D01*
X124340569Y-86931082D01*
X124340572Y-86931084D01*
X124347381Y-86936984D01*
X124355579Y-86940728D01*
X124463796Y-86990149D01*
X124480330Y-86997700D01*
X124489245Y-86998982D01*
X124489246Y-86998982D01*
X124620552Y-87017861D01*
X124620559Y-87017862D01*
X124625000Y-87018500D01*
X126125156Y-87018500D01*
X126193277Y-87038502D01*
X126226420Y-87071646D01*
X126226528Y-87071553D01*
X126227832Y-87073058D01*
X126231156Y-87076382D01*
X126232430Y-87078364D01*
X126244112Y-87091847D01*
X126340840Y-87175662D01*
X126355848Y-87185307D01*
X126407349Y-87208826D01*
X126461005Y-87255319D01*
X126481007Y-87323440D01*
X126461005Y-87391561D01*
X126446481Y-87410091D01*
X126444082Y-87412624D01*
X126435365Y-87424276D01*
X126353957Y-87564429D01*
X126348163Y-87577754D01*
X126300932Y-87733700D01*
X126298484Y-87746323D01*
X126292249Y-87816184D01*
X126292000Y-87821779D01*
X126292000Y-88227885D01*
X126296475Y-88243124D01*
X126297865Y-88244329D01*
X126305548Y-88246000D01*
X128589885Y-88246000D01*
X128605124Y-88241525D01*
X128606329Y-88240135D01*
X128608000Y-88232452D01*
X128608000Y-87835777D01*
X128607576Y-87828476D01*
X128593383Y-87706745D01*
X128590037Y-87692590D01*
X128534737Y-87540239D01*
X128528228Y-87527240D01*
X128482887Y-87458085D01*
X128462264Y-87390150D01*
X128481644Y-87321850D01*
X128534873Y-87274869D01*
X128588259Y-87263000D01*
X129409568Y-87263000D01*
X129477689Y-87283002D01*
X129524182Y-87336658D01*
X129534286Y-87406932D01*
X129518524Y-87452282D01*
X129449825Y-87570555D01*
X129398567Y-87739796D01*
X129397992Y-87746236D01*
X129397992Y-87746237D01*
X129392090Y-87812371D01*
X129391500Y-87818978D01*
X129391500Y-89167886D01*
X129401502Y-89253677D01*
X129406117Y-89293255D01*
X129406978Y-89300643D01*
X129409474Y-89307521D01*
X129409475Y-89307523D01*
X129451187Y-89422437D01*
X129467313Y-89466864D01*
X129564269Y-89614747D01*
X129569581Y-89619779D01*
X129610517Y-89658558D01*
X129646215Y-89719927D01*
X129643068Y-89790854D01*
X129615338Y-89836683D01*
X129538642Y-89917645D01*
X129449825Y-90070555D01*
X129398567Y-90239796D01*
X129391500Y-90318978D01*
X129391500Y-91667886D01*
X129401512Y-91753763D01*
X129405415Y-91787233D01*
X129406978Y-91800643D01*
X129409474Y-91807521D01*
X129409475Y-91807523D01*
X129451187Y-91922437D01*
X129467313Y-91966864D01*
X129564269Y-92114747D01*
X129692645Y-92236358D01*
X129845555Y-92325175D01*
X130014796Y-92376433D01*
X130021236Y-92377008D01*
X130021237Y-92377008D01*
X130091185Y-92383251D01*
X130091191Y-92383251D01*
X130093978Y-92383500D01*
X130992886Y-92383500D01*
X131088106Y-92372398D01*
X131118371Y-92368870D01*
X131118372Y-92368870D01*
X131125643Y-92368022D01*
X131132521Y-92365526D01*
X131132523Y-92365525D01*
X131284985Y-92310184D01*
X131291864Y-92307687D01*
X131439747Y-92210731D01*
X131561358Y-92082355D01*
X131650175Y-91929445D01*
X131701433Y-91760204D01*
X131708500Y-91681022D01*
X131708500Y-90332114D01*
X131697015Y-90233605D01*
X131693870Y-90206629D01*
X131693870Y-90206628D01*
X131693022Y-90199357D01*
X131654372Y-90092876D01*
X131635184Y-90040015D01*
X131632687Y-90033136D01*
X131535731Y-89885253D01*
X131489483Y-89841442D01*
X131453785Y-89780073D01*
X131456932Y-89709146D01*
X131484663Y-89663316D01*
X131489171Y-89658558D01*
X131561358Y-89582355D01*
X131650175Y-89429445D01*
X131701433Y-89260204D01*
X131708500Y-89181022D01*
X131708500Y-87832114D01*
X131697015Y-87733605D01*
X131693870Y-87706629D01*
X131693870Y-87706628D01*
X131693022Y-87699357D01*
X131687806Y-87684985D01*
X131635184Y-87540015D01*
X131632687Y-87533136D01*
X131553676Y-87412624D01*
X131539743Y-87391372D01*
X131539742Y-87391371D01*
X131535731Y-87385253D01*
X131536069Y-87385032D01*
X131509486Y-87324004D01*
X131508500Y-87308271D01*
X131508500Y-87140566D01*
X131528502Y-87072445D01*
X131582158Y-87025952D01*
X131625511Y-87014887D01*
X131648079Y-87013273D01*
X131726833Y-86990149D01*
X131779670Y-86974635D01*
X131779672Y-86974634D01*
X131788316Y-86972096D01*
X131791043Y-86970343D01*
X131858433Y-86960655D01*
X131923014Y-86990149D01*
X131961397Y-87049875D01*
X131966500Y-87085372D01*
X131966500Y-87392886D01*
X131974346Y-87460184D01*
X131981117Y-87518255D01*
X131981978Y-87525643D01*
X131984474Y-87532521D01*
X131984475Y-87532523D01*
X132026187Y-87647437D01*
X132042313Y-87691864D01*
X132078018Y-87746323D01*
X132134265Y-87832114D01*
X132139269Y-87839747D01*
X132267645Y-87961358D01*
X132420555Y-88050175D01*
X132589796Y-88101433D01*
X132596236Y-88102008D01*
X132596237Y-88102008D01*
X132666185Y-88108251D01*
X132666191Y-88108251D01*
X132668978Y-88108500D01*
X133592886Y-88108500D01*
X133688106Y-88097398D01*
X133718371Y-88093870D01*
X133718372Y-88093870D01*
X133725643Y-88093022D01*
X133732521Y-88090526D01*
X133732523Y-88090525D01*
X133884985Y-88035184D01*
X133891864Y-88032687D01*
X134008337Y-87956324D01*
X134033628Y-87939743D01*
X134033629Y-87939742D01*
X134039747Y-87935731D01*
X134161358Y-87807355D01*
X134250175Y-87654445D01*
X134301433Y-87485204D01*
X134303666Y-87460184D01*
X134308251Y-87408815D01*
X134308251Y-87408809D01*
X134308500Y-87406022D01*
X134308500Y-86967548D01*
X135092000Y-86967548D01*
X135092000Y-87389223D01*
X135092424Y-87396524D01*
X135106617Y-87518255D01*
X135109963Y-87532410D01*
X135165263Y-87684761D01*
X135171773Y-87697760D01*
X135260641Y-87833306D01*
X135269965Y-87844458D01*
X135387629Y-87955922D01*
X135399276Y-87964635D01*
X135539429Y-88046043D01*
X135552754Y-88051837D01*
X135708700Y-88099068D01*
X135721323Y-88101516D01*
X135791184Y-88107751D01*
X135796779Y-88108000D01*
X135990385Y-88108000D01*
X136005624Y-88103525D01*
X136006829Y-88102135D01*
X136008500Y-88094452D01*
X136008500Y-86972115D01*
X136007159Y-86967548D01*
X136516500Y-86967548D01*
X136516500Y-88089885D01*
X136520975Y-88105124D01*
X136522365Y-88106329D01*
X136530048Y-88108000D01*
X136714223Y-88108000D01*
X136721524Y-88107576D01*
X136843255Y-88093383D01*
X136857410Y-88090037D01*
X137009761Y-88034737D01*
X137022760Y-88028227D01*
X137158306Y-87939359D01*
X137169458Y-87930035D01*
X137280922Y-87812371D01*
X137289635Y-87800724D01*
X137371043Y-87660571D01*
X137376837Y-87647246D01*
X137424068Y-87491300D01*
X137426516Y-87478677D01*
X137432751Y-87408816D01*
X137433000Y-87403221D01*
X137433000Y-86972115D01*
X137428525Y-86956876D01*
X137427135Y-86955671D01*
X137419452Y-86954000D01*
X136534615Y-86954000D01*
X136519376Y-86958475D01*
X136518171Y-86959865D01*
X136516500Y-86967548D01*
X136007159Y-86967548D01*
X136004025Y-86956876D01*
X136002635Y-86955671D01*
X135994952Y-86954000D01*
X135110115Y-86954000D01*
X135094876Y-86958475D01*
X135093671Y-86959865D01*
X135092000Y-86967548D01*
X134308500Y-86967548D01*
X134308500Y-86007114D01*
X134307295Y-85996779D01*
X135092000Y-85996779D01*
X135092000Y-86427885D01*
X135096475Y-86443124D01*
X135097865Y-86444329D01*
X135105548Y-86446000D01*
X135990385Y-86446000D01*
X136005624Y-86441525D01*
X136006829Y-86440135D01*
X136008500Y-86432452D01*
X136008500Y-85310115D01*
X136007159Y-85305548D01*
X136516500Y-85305548D01*
X136516500Y-86427885D01*
X136520975Y-86443124D01*
X136522365Y-86444329D01*
X136530048Y-86446000D01*
X137414885Y-86446000D01*
X137430124Y-86441525D01*
X137431329Y-86440135D01*
X137433000Y-86432452D01*
X137433000Y-86010777D01*
X137432576Y-86003476D01*
X137418383Y-85881745D01*
X137415037Y-85867590D01*
X137359737Y-85715239D01*
X137353227Y-85702240D01*
X137264359Y-85566694D01*
X137255035Y-85555542D01*
X137137371Y-85444078D01*
X137125724Y-85435365D01*
X136985571Y-85353957D01*
X136972246Y-85348163D01*
X136816300Y-85300932D01*
X136803677Y-85298484D01*
X136733816Y-85292249D01*
X136728221Y-85292000D01*
X136534615Y-85292000D01*
X136519376Y-85296475D01*
X136518171Y-85297865D01*
X136516500Y-85305548D01*
X136007159Y-85305548D01*
X136004025Y-85294876D01*
X136002635Y-85293671D01*
X135994952Y-85292000D01*
X135810777Y-85292000D01*
X135803476Y-85292424D01*
X135681745Y-85306617D01*
X135667590Y-85309963D01*
X135515239Y-85365263D01*
X135502240Y-85371773D01*
X135366694Y-85460641D01*
X135355542Y-85469965D01*
X135244078Y-85587629D01*
X135235365Y-85599276D01*
X135153957Y-85739429D01*
X135148163Y-85752754D01*
X135100932Y-85908700D01*
X135098484Y-85921323D01*
X135092249Y-85991184D01*
X135092000Y-85996779D01*
X134307295Y-85996779D01*
X134294938Y-85890790D01*
X134293870Y-85881629D01*
X134293870Y-85881628D01*
X134293022Y-85874357D01*
X134245956Y-85744691D01*
X134241515Y-85673836D01*
X134276087Y-85611826D01*
X134321403Y-85583263D01*
X134384988Y-85560183D01*
X134384989Y-85560182D01*
X134391864Y-85557687D01*
X134539747Y-85460731D01*
X134661358Y-85332355D01*
X134750175Y-85179445D01*
X134801433Y-85010204D01*
X134805663Y-84962811D01*
X134808251Y-84933815D01*
X134808251Y-84933809D01*
X134808500Y-84931022D01*
X134808500Y-84007114D01*
X134793022Y-83874357D01*
X134782568Y-83845555D01*
X134735184Y-83715015D01*
X134732687Y-83708136D01*
X134635731Y-83560253D01*
X134507355Y-83438642D01*
X134354445Y-83349825D01*
X134185204Y-83298567D01*
X134178764Y-83297992D01*
X134178763Y-83297992D01*
X134108815Y-83291749D01*
X134108809Y-83291749D01*
X134106022Y-83291500D01*
X133424582Y-83291500D01*
X133356461Y-83271498D01*
X133335487Y-83254595D01*
X133172972Y-83092080D01*
X133172044Y-83091143D01*
X133121584Y-83039615D01*
X133121583Y-83039614D01*
X133116656Y-83034583D01*
X133083513Y-83013223D01*
X133037089Y-82959509D01*
X133027075Y-82889222D01*
X133056650Y-82824679D01*
X133062674Y-82818218D01*
X133249245Y-82631647D01*
X133311557Y-82597621D01*
X133345592Y-82594951D01*
X133390980Y-82597568D01*
X133434081Y-82600054D01*
X133434084Y-82600054D01*
X133439687Y-82600377D01*
X133662696Y-82573389D01*
X133668058Y-82571739D01*
X133668060Y-82571739D01*
X133826489Y-82523000D01*
X133855517Y-82514070D01*
X133892565Y-82508500D01*
X134092886Y-82508500D01*
X134188106Y-82497398D01*
X134218371Y-82493870D01*
X134218372Y-82493870D01*
X134225643Y-82493022D01*
X134232521Y-82490526D01*
X134232523Y-82490525D01*
X134384985Y-82435184D01*
X134391864Y-82432687D01*
X134539747Y-82335731D01*
X134661358Y-82207355D01*
X134750175Y-82054445D01*
X134801433Y-81885204D01*
X134803392Y-81863255D01*
X134808251Y-81808815D01*
X134808251Y-81808809D01*
X134808500Y-81806022D01*
X134808500Y-80882114D01*
X134793022Y-80749357D01*
X134771564Y-80690239D01*
X134735184Y-80590015D01*
X134732687Y-80583136D01*
X134725881Y-80572754D01*
X134698205Y-80530542D01*
X134682428Y-80506477D01*
X134661940Y-80443329D01*
X134661578Y-80435641D01*
X134658640Y-80373350D01*
X134658500Y-80367415D01*
X134658500Y-80343976D01*
X134658039Y-80338806D01*
X134656094Y-80317014D01*
X134655735Y-80311750D01*
X134652074Y-80234127D01*
X134651810Y-80228523D01*
X134648757Y-80215191D01*
X134647806Y-80211039D01*
X134645126Y-80194119D01*
X134644030Y-80181839D01*
X134644029Y-80181835D01*
X134643531Y-80176253D01*
X134634482Y-80143174D01*
X134621548Y-80095894D01*
X134620262Y-80090777D01*
X134602912Y-80015024D01*
X134601660Y-80009557D01*
X134594625Y-79993063D01*
X134588989Y-79976880D01*
X134585734Y-79964983D01*
X134584256Y-79959579D01*
X134562916Y-79914838D01*
X134548382Y-79884365D01*
X134546211Y-79879557D01*
X134515728Y-79808092D01*
X134513527Y-79802932D01*
X134503683Y-79787946D01*
X134495271Y-79773017D01*
X134487548Y-79756826D01*
X134438919Y-79689152D01*
X134435934Y-79684809D01*
X134392735Y-79619044D01*
X134392729Y-79619036D01*
X134390196Y-79615180D01*
X134371676Y-79594393D01*
X134363436Y-79584108D01*
X134362630Y-79582986D01*
X134356463Y-79574403D01*
X134352437Y-79570502D01*
X134352434Y-79570498D01*
X134283693Y-79503884D01*
X134282283Y-79502495D01*
X133795405Y-79015617D01*
X133761379Y-78953305D01*
X133758500Y-78926522D01*
X133758500Y-77209419D01*
X133778502Y-77141298D01*
X133789271Y-77126913D01*
X133831984Y-77077619D01*
X133837142Y-77066326D01*
X133888958Y-76952864D01*
X133888958Y-76952863D01*
X133892700Y-76944670D01*
X133903962Y-76866340D01*
X133912861Y-76804448D01*
X133912862Y-76804441D01*
X133913500Y-76800000D01*
X133913500Y-73200000D01*
X133908273Y-73126921D01*
X133867096Y-72986684D01*
X133821393Y-72915569D01*
X133792949Y-72871309D01*
X133792947Y-72871306D01*
X133788077Y-72863729D01*
X133781267Y-72857828D01*
X133684431Y-72773918D01*
X133684428Y-72773916D01*
X133677619Y-72768016D01*
X133544670Y-72707300D01*
X133535755Y-72706018D01*
X133535754Y-72706018D01*
X133404448Y-72687139D01*
X133404441Y-72687138D01*
X133400000Y-72686500D01*
X131600000Y-72686500D01*
X131526921Y-72691727D01*
X131473884Y-72707300D01*
X131395330Y-72730365D01*
X131395328Y-72730366D01*
X131386684Y-72732904D01*
X131379105Y-72737775D01*
X131271309Y-72807051D01*
X131271306Y-72807053D01*
X131263729Y-72811923D01*
X131257828Y-72818733D01*
X131173918Y-72915569D01*
X131173916Y-72915572D01*
X131168016Y-72922381D01*
X131107300Y-73055330D01*
X131106018Y-73064245D01*
X131106018Y-73064246D01*
X131087139Y-73195552D01*
X131087138Y-73195559D01*
X131086500Y-73200000D01*
X131086500Y-76800000D01*
X131091727Y-76873079D01*
X131132904Y-77013316D01*
X131211923Y-77136271D01*
X131212465Y-77136740D01*
X131240217Y-77197510D01*
X131241500Y-77215442D01*
X131241500Y-79409269D01*
X131240422Y-79425716D01*
X131237608Y-79447090D01*
X131241360Y-79526649D01*
X131241500Y-79532585D01*
X131241500Y-79556024D01*
X131241749Y-79558808D01*
X131241749Y-79558819D01*
X131243906Y-79582986D01*
X131244265Y-79588250D01*
X131246583Y-79637400D01*
X131248190Y-79671477D01*
X131249442Y-79676944D01*
X131252194Y-79688961D01*
X131254874Y-79705881D01*
X131256469Y-79723747D01*
X131257949Y-79729158D01*
X131257950Y-79729162D01*
X131278452Y-79804106D01*
X131279738Y-79809223D01*
X131298340Y-79890443D01*
X131300540Y-79895601D01*
X131300541Y-79895604D01*
X131305375Y-79906937D01*
X131311010Y-79923117D01*
X131315744Y-79940421D01*
X131318159Y-79945484D01*
X131351618Y-80015635D01*
X131353789Y-80020443D01*
X131386473Y-80097068D01*
X131389552Y-80101756D01*
X131389553Y-80101757D01*
X131396317Y-80112054D01*
X131404729Y-80126983D01*
X131412452Y-80143174D01*
X131415728Y-80147733D01*
X131461076Y-80210840D01*
X131464066Y-80215191D01*
X131507265Y-80280956D01*
X131507271Y-80280964D01*
X131509804Y-80284820D01*
X131528324Y-80305607D01*
X131536560Y-80315886D01*
X131543537Y-80325597D01*
X131547563Y-80329498D01*
X131547566Y-80329502D01*
X131616307Y-80396116D01*
X131617717Y-80397505D01*
X131957863Y-80737651D01*
X131991889Y-80799963D01*
X131994269Y-80837945D01*
X131991749Y-80866180D01*
X131991748Y-80866196D01*
X131991500Y-80868978D01*
X131991500Y-81460500D01*
X131971498Y-81528621D01*
X131917842Y-81575114D01*
X131865500Y-81586500D01*
X131618791Y-81586500D01*
X131600859Y-81585217D01*
X131579459Y-81582140D01*
X131579444Y-81582139D01*
X131575000Y-81581500D01*
X130074844Y-81581500D01*
X130006723Y-81561498D01*
X129973580Y-81528354D01*
X129973472Y-81528447D01*
X129972168Y-81526942D01*
X129968844Y-81523618D01*
X129967570Y-81521636D01*
X129955888Y-81508153D01*
X129859160Y-81424338D01*
X129844152Y-81414693D01*
X129727725Y-81361523D01*
X129710612Y-81356498D01*
X129579446Y-81337639D01*
X129570505Y-81337000D01*
X128372115Y-81337000D01*
X128356876Y-81341475D01*
X128355671Y-81342865D01*
X128354000Y-81350548D01*
X128354000Y-81576674D01*
X128361531Y-81602321D01*
X129020115Y-82260905D01*
X129054141Y-82323217D01*
X129049076Y-82394032D01*
X129020115Y-82439095D01*
X128750000Y-82709210D01*
X128472023Y-82987188D01*
X128464409Y-83001132D01*
X128464540Y-83002967D01*
X128468788Y-83009577D01*
X128750000Y-83290790D01*
X129440137Y-83980926D01*
X129474162Y-84043238D01*
X129469097Y-84114054D01*
X129440137Y-84159116D01*
X129349627Y-84249627D01*
X129312062Y-84287192D01*
X129304451Y-84301130D01*
X129304583Y-84302966D01*
X129308832Y-84309578D01*
X129440137Y-84440883D01*
X129474163Y-84503195D01*
X129469098Y-84574010D01*
X129440137Y-84619074D01*
X128750000Y-85309210D01*
X128472022Y-85587189D01*
X128464409Y-85601132D01*
X128464540Y-85602967D01*
X128468790Y-85609580D01*
X129020115Y-86160905D01*
X129054141Y-86223217D01*
X129049076Y-86294032D01*
X129020115Y-86339095D01*
X128750000Y-86609210D01*
X128419074Y-86940137D01*
X128356762Y-86974163D01*
X128285947Y-86969098D01*
X128240884Y-86940137D01*
X128112810Y-86812063D01*
X128098870Y-86804451D01*
X128097034Y-86804583D01*
X128090422Y-86808832D01*
X127959117Y-86940137D01*
X127896805Y-86974163D01*
X127825990Y-86969098D01*
X127780927Y-86940137D01*
X127179885Y-86339095D01*
X127145859Y-86276783D01*
X127147694Y-86251132D01*
X127814408Y-86251132D01*
X127814539Y-86252966D01*
X127818790Y-86259579D01*
X128087192Y-86527981D01*
X128101130Y-86535592D01*
X128102966Y-86535460D01*
X128109578Y-86531211D01*
X128377979Y-86262811D01*
X128385592Y-86248868D01*
X128385461Y-86247034D01*
X128381210Y-86240421D01*
X128112808Y-85972019D01*
X128098870Y-85964408D01*
X128097034Y-85964540D01*
X128090422Y-85968789D01*
X127822021Y-86237189D01*
X127814408Y-86251132D01*
X127147694Y-86251132D01*
X127150924Y-86205968D01*
X127179885Y-86160905D01*
X127450000Y-85890790D01*
X127727977Y-85612812D01*
X127734355Y-85601132D01*
X128004452Y-85601132D01*
X128004583Y-85602965D01*
X128008834Y-85609580D01*
X128087188Y-85687934D01*
X128101132Y-85695548D01*
X128102965Y-85695417D01*
X128109580Y-85691166D01*
X128187934Y-85612812D01*
X128195548Y-85598868D01*
X128195417Y-85597035D01*
X128191166Y-85590420D01*
X128112812Y-85512066D01*
X128098868Y-85504452D01*
X128097035Y-85504583D01*
X128090420Y-85508834D01*
X128012066Y-85587188D01*
X128004452Y-85601132D01*
X127734355Y-85601132D01*
X127735591Y-85598868D01*
X127735460Y-85597033D01*
X127731212Y-85590423D01*
X127091922Y-84951132D01*
X127814408Y-84951132D01*
X127814539Y-84952966D01*
X127818790Y-84959579D01*
X128087192Y-85227981D01*
X128101130Y-85235592D01*
X128102966Y-85235460D01*
X128109578Y-85231211D01*
X128377979Y-84962811D01*
X128385592Y-84948868D01*
X128385461Y-84947034D01*
X128381210Y-84940421D01*
X128112808Y-84672019D01*
X128098870Y-84664408D01*
X128097034Y-84664540D01*
X128090422Y-84668789D01*
X127822021Y-84937189D01*
X127814408Y-84951132D01*
X127091922Y-84951132D01*
X127090790Y-84950000D01*
X126759863Y-84619074D01*
X126725838Y-84556762D01*
X126730903Y-84485946D01*
X126759863Y-84440884D01*
X126850373Y-84350373D01*
X126887938Y-84312808D01*
X126894315Y-84301130D01*
X127164408Y-84301130D01*
X127164540Y-84302966D01*
X127168789Y-84309578D01*
X127437189Y-84577979D01*
X127451132Y-84585592D01*
X127452966Y-84585461D01*
X127459579Y-84581210D01*
X127727981Y-84312808D01*
X127734358Y-84301130D01*
X128464408Y-84301130D01*
X128464540Y-84302966D01*
X128468789Y-84309578D01*
X128737189Y-84577979D01*
X128751132Y-84585592D01*
X128752966Y-84585461D01*
X128759579Y-84581210D01*
X129027981Y-84312808D01*
X129035592Y-84298870D01*
X129035460Y-84297034D01*
X129031211Y-84290422D01*
X128762811Y-84022021D01*
X128748868Y-84014408D01*
X128747034Y-84014539D01*
X128740421Y-84018790D01*
X128472019Y-84287192D01*
X128464408Y-84301130D01*
X127734358Y-84301130D01*
X127735592Y-84298870D01*
X127735460Y-84297034D01*
X127731211Y-84290422D01*
X127462811Y-84022021D01*
X127448868Y-84014408D01*
X127447034Y-84014539D01*
X127440421Y-84018790D01*
X127172019Y-84287192D01*
X127164408Y-84301130D01*
X126894315Y-84301130D01*
X126895549Y-84298870D01*
X126895417Y-84297034D01*
X126891168Y-84290422D01*
X126759863Y-84159117D01*
X126725837Y-84096805D01*
X126730902Y-84025990D01*
X126759863Y-83980926D01*
X127089658Y-83651131D01*
X127814408Y-83651131D01*
X127814539Y-83652966D01*
X127818789Y-83659578D01*
X127833191Y-83673980D01*
X127843276Y-83679487D01*
X127846000Y-83672184D01*
X127846000Y-83631326D01*
X127844969Y-83627816D01*
X128354000Y-83627816D01*
X128354000Y-83668674D01*
X128357237Y-83679699D01*
X128364328Y-83676461D01*
X128377979Y-83662811D01*
X128385592Y-83648869D01*
X128385461Y-83647034D01*
X128381211Y-83640422D01*
X128366809Y-83626020D01*
X128356724Y-83620513D01*
X128354000Y-83627816D01*
X127844969Y-83627816D01*
X127842763Y-83620301D01*
X127835672Y-83623539D01*
X127822021Y-83637189D01*
X127814408Y-83651131D01*
X127089658Y-83651131D01*
X127450000Y-83290790D01*
X127727978Y-83012811D01*
X127735591Y-82998868D01*
X127735460Y-82997033D01*
X127731210Y-82990420D01*
X127179885Y-82439095D01*
X127145859Y-82376783D01*
X127147694Y-82351131D01*
X127814408Y-82351131D01*
X127814539Y-82352966D01*
X127818789Y-82359578D01*
X127833191Y-82373980D01*
X127843276Y-82379487D01*
X127846000Y-82372184D01*
X127846000Y-82331326D01*
X127844969Y-82327816D01*
X128354000Y-82327816D01*
X128354000Y-82368674D01*
X128357237Y-82379699D01*
X128364328Y-82376461D01*
X128377979Y-82362811D01*
X128385592Y-82348869D01*
X128385461Y-82347034D01*
X128381211Y-82340422D01*
X128366809Y-82326020D01*
X128356724Y-82320513D01*
X128354000Y-82327816D01*
X127844969Y-82327816D01*
X127842763Y-82320301D01*
X127835672Y-82323539D01*
X127822021Y-82337189D01*
X127814408Y-82351131D01*
X127147694Y-82351131D01*
X127150924Y-82305968D01*
X127179885Y-82260905D01*
X127450000Y-81990790D01*
X127833188Y-81607601D01*
X127846000Y-81584139D01*
X127846000Y-81355115D01*
X127841525Y-81339876D01*
X127840135Y-81338671D01*
X127832452Y-81337000D01*
X126627257Y-81337000D01*
X126622750Y-81337161D01*
X126558731Y-81341740D01*
X126545509Y-81344126D01*
X126420542Y-81380819D01*
X126404308Y-81388233D01*
X126296640Y-81457426D01*
X126283149Y-81469116D01*
X126223017Y-81538512D01*
X126163291Y-81576896D01*
X126127793Y-81582000D01*
X125672115Y-81582000D01*
X125656876Y-81586475D01*
X125655671Y-81587865D01*
X125654000Y-81595548D01*
X125654000Y-82523000D01*
X125633998Y-82591121D01*
X125580342Y-82637614D01*
X125528000Y-82649000D01*
X124130115Y-82649000D01*
X124114876Y-82653475D01*
X124113671Y-82654865D01*
X124112000Y-82662548D01*
X124112000Y-82692743D01*
X124112161Y-82697250D01*
X124116740Y-82761269D01*
X124119126Y-82774491D01*
X124155819Y-82899458D01*
X124163233Y-82915692D01*
X124190277Y-82957774D01*
X124210279Y-83025895D01*
X124192319Y-83087063D01*
X124193016Y-83087381D01*
X124191100Y-83091577D01*
X124132300Y-83220330D01*
X124131018Y-83229245D01*
X124131018Y-83229246D01*
X124112139Y-83360552D01*
X124112138Y-83360559D01*
X124111500Y-83365000D01*
X124111500Y-83631887D01*
X124091498Y-83700008D01*
X124037842Y-83746501D01*
X123969926Y-83756266D01*
X123969866Y-83756785D01*
X123967899Y-83756557D01*
X123967568Y-83756605D01*
X123966367Y-83756380D01*
X123962858Y-83755974D01*
X123956001Y-83754391D01*
X123948963Y-83754366D01*
X123948959Y-83754366D01*
X123929373Y-83754298D01*
X123916401Y-83754253D01*
X123914248Y-83754181D01*
X123912811Y-83754000D01*
X123865251Y-83754000D01*
X123797130Y-83733998D01*
X123759879Y-83697085D01*
X123739743Y-83666372D01*
X123739742Y-83666371D01*
X123735731Y-83660253D01*
X123607355Y-83538642D01*
X123454445Y-83449825D01*
X123285204Y-83398567D01*
X123278764Y-83397992D01*
X123278763Y-83397992D01*
X123208815Y-83391749D01*
X123208809Y-83391749D01*
X123206022Y-83391500D01*
X121807114Y-83391500D01*
X121711894Y-83402602D01*
X121681629Y-83406130D01*
X121681628Y-83406130D01*
X121674357Y-83406978D01*
X121667479Y-83409474D01*
X121667477Y-83409475D01*
X121573255Y-83443676D01*
X121508136Y-83467313D01*
X121502019Y-83471324D01*
X121502016Y-83471325D01*
X121477010Y-83487720D01*
X121453510Y-83503127D01*
X121385576Y-83523750D01*
X121317276Y-83504370D01*
X121302188Y-83493183D01*
X121294452Y-83491500D01*
X120172115Y-83491500D01*
X120156876Y-83495975D01*
X120155671Y-83497365D01*
X120154000Y-83505048D01*
X120154000Y-84389885D01*
X120158475Y-84405124D01*
X120159865Y-84406329D01*
X120167548Y-84408000D01*
X120589223Y-84408000D01*
X120596524Y-84407576D01*
X120718255Y-84393383D01*
X120732410Y-84390037D01*
X120884761Y-84334737D01*
X120904307Y-84324949D01*
X120905075Y-84326482D01*
X120964344Y-84308486D01*
X121032645Y-84327862D01*
X121079628Y-84381089D01*
X121091500Y-84434481D01*
X121091500Y-84775418D01*
X121071498Y-84843539D01*
X121054595Y-84864513D01*
X120759287Y-85159821D01*
X120696975Y-85193847D01*
X120658992Y-85196227D01*
X120608817Y-85191749D01*
X120608807Y-85191749D01*
X120606022Y-85191500D01*
X119207114Y-85191500D01*
X119111894Y-85202602D01*
X119081629Y-85206130D01*
X119081628Y-85206130D01*
X119074357Y-85206978D01*
X119067479Y-85209474D01*
X119067477Y-85209475D01*
X118995526Y-85235592D01*
X118908136Y-85267313D01*
X118760253Y-85364269D01*
X118638642Y-85492645D01*
X118549825Y-85645555D01*
X118498567Y-85814796D01*
X118497992Y-85821236D01*
X118497992Y-85821237D01*
X118491785Y-85890790D01*
X118491500Y-85893978D01*
X118491500Y-86575418D01*
X118471498Y-86643539D01*
X118454595Y-86664513D01*
X116882080Y-88237028D01*
X116881143Y-88237956D01*
X116824583Y-88293344D01*
X116801104Y-88329777D01*
X116793673Y-88340119D01*
X116766622Y-88374005D01*
X116752032Y-88404186D01*
X116744504Y-88417600D01*
X116730157Y-88439863D01*
X116726338Y-88445789D01*
X116723929Y-88452409D01*
X116711512Y-88486523D01*
X116706553Y-88498262D01*
X116687688Y-88537287D01*
X116686103Y-88544153D01*
X116680145Y-88569961D01*
X116675780Y-88584699D01*
X116664310Y-88616212D01*
X116663427Y-88623204D01*
X116658879Y-88659202D01*
X116656644Y-88671754D01*
X116646891Y-88713999D01*
X116646866Y-88721037D01*
X116646866Y-88721041D01*
X116646753Y-88753590D01*
X116646681Y-88755752D01*
X116646500Y-88757189D01*
X116646500Y-88826200D01*
X116646259Y-88895357D01*
X116646451Y-88896214D01*
X116646500Y-88897127D01*
X116646500Y-93365500D01*
X116626498Y-93433621D01*
X116572842Y-93480114D01*
X116520500Y-93491500D01*
X116155000Y-93491500D01*
X116081921Y-93496727D01*
X116028884Y-93512300D01*
X115950330Y-93535365D01*
X115950328Y-93535366D01*
X115941684Y-93537904D01*
X115934105Y-93542775D01*
X115826309Y-93612051D01*
X115826306Y-93612053D01*
X115818729Y-93616923D01*
X115812828Y-93623733D01*
X115728918Y-93720569D01*
X115728916Y-93720572D01*
X115723016Y-93727381D01*
X115662300Y-93860330D01*
X115661018Y-93869245D01*
X115661018Y-93869246D01*
X115642139Y-94000552D01*
X115642138Y-94000559D01*
X115641500Y-94005000D01*
X104693287Y-94005000D01*
X104439421Y-93932685D01*
X104228794Y-93902708D01*
X104159041Y-93892781D01*
X104159039Y-93892781D01*
X104154789Y-93892176D01*
X104003976Y-93891387D01*
X103871579Y-93890693D01*
X103871573Y-93890693D01*
X103867292Y-93890671D01*
X103863048Y-93891230D01*
X103863044Y-93891230D01*
X103737864Y-93907710D01*
X103582251Y-93928197D01*
X103578111Y-93929330D01*
X103578109Y-93929330D01*
X103309732Y-94002750D01*
X103304940Y-94004061D01*
X103283580Y-94013172D01*
X103044433Y-94115176D01*
X103044426Y-94115180D01*
X103040491Y-94116858D01*
X103036810Y-94119061D01*
X102797479Y-94262297D01*
X102797475Y-94262300D01*
X102793797Y-94264501D01*
X102790454Y-94267179D01*
X102790450Y-94267182D01*
X102755427Y-94295241D01*
X102569423Y-94444259D01*
X102566479Y-94447361D01*
X102566475Y-94447365D01*
X102489161Y-94528837D01*
X102371520Y-94652804D01*
X102203752Y-94886279D01*
X102069222Y-95140362D01*
X101970419Y-95410352D01*
X101909173Y-95691254D01*
X101886616Y-95977868D01*
X100508000Y-95977868D01*
X100508000Y-83505048D01*
X118492000Y-83505048D01*
X118492000Y-83689223D01*
X118492424Y-83696524D01*
X118506617Y-83818255D01*
X118509963Y-83832410D01*
X118565263Y-83984761D01*
X118571773Y-83997760D01*
X118660641Y-84133306D01*
X118669965Y-84144458D01*
X118787629Y-84255922D01*
X118799276Y-84264635D01*
X118939429Y-84346043D01*
X118952754Y-84351837D01*
X119108700Y-84399068D01*
X119121323Y-84401516D01*
X119191184Y-84407751D01*
X119196779Y-84408000D01*
X119627885Y-84408000D01*
X119643124Y-84403525D01*
X119644329Y-84402135D01*
X119646000Y-84394452D01*
X119646000Y-83509615D01*
X119641525Y-83494376D01*
X119640135Y-83493171D01*
X119632452Y-83491500D01*
X118510115Y-83491500D01*
X118494876Y-83495975D01*
X118493671Y-83497365D01*
X118492000Y-83505048D01*
X100508000Y-83505048D01*
X100508000Y-81550048D01*
X110992000Y-81550048D01*
X110992000Y-81734223D01*
X110992424Y-81741524D01*
X111006617Y-81863255D01*
X111009963Y-81877410D01*
X111065263Y-82029761D01*
X111071773Y-82042760D01*
X111160641Y-82178306D01*
X111169965Y-82189458D01*
X111287629Y-82300922D01*
X111299276Y-82309635D01*
X111439429Y-82391043D01*
X111452754Y-82396837D01*
X111608700Y-82444068D01*
X111621323Y-82446516D01*
X111691184Y-82452751D01*
X111696779Y-82453000D01*
X112127885Y-82453000D01*
X112143124Y-82448525D01*
X112144329Y-82447135D01*
X112146000Y-82439452D01*
X112146000Y-81554615D01*
X112144659Y-81550048D01*
X112654000Y-81550048D01*
X112654000Y-82434885D01*
X112658475Y-82450124D01*
X112659865Y-82451329D01*
X112667548Y-82453000D01*
X113089223Y-82453000D01*
X113096524Y-82452576D01*
X113218255Y-82438383D01*
X113232410Y-82435037D01*
X113384761Y-82379737D01*
X113397760Y-82373227D01*
X113533306Y-82284359D01*
X113544458Y-82275035D01*
X113559892Y-82258743D01*
X113621261Y-82223046D01*
X113692188Y-82226194D01*
X113738017Y-82253924D01*
X113787629Y-82300922D01*
X113799276Y-82309635D01*
X113939429Y-82391043D01*
X113952754Y-82396837D01*
X114108700Y-82444068D01*
X114121323Y-82446516D01*
X114191184Y-82452751D01*
X114196779Y-82453000D01*
X114627885Y-82453000D01*
X114643124Y-82448525D01*
X114644329Y-82447135D01*
X114646000Y-82439452D01*
X114646000Y-81554615D01*
X114644659Y-81550048D01*
X115154000Y-81550048D01*
X115154000Y-82434885D01*
X115158475Y-82450124D01*
X115159865Y-82451329D01*
X115167548Y-82453000D01*
X115589223Y-82453000D01*
X115596524Y-82452576D01*
X115718255Y-82438383D01*
X115732410Y-82435037D01*
X115884761Y-82379737D01*
X115897760Y-82373227D01*
X116033306Y-82284359D01*
X116044458Y-82275035D01*
X116059892Y-82258743D01*
X116121261Y-82223046D01*
X116192188Y-82226194D01*
X116238017Y-82253924D01*
X116287629Y-82300922D01*
X116299276Y-82309635D01*
X116439429Y-82391043D01*
X116452754Y-82396837D01*
X116608700Y-82444068D01*
X116621323Y-82446516D01*
X116691184Y-82452751D01*
X116696779Y-82453000D01*
X117127885Y-82453000D01*
X117143124Y-82448525D01*
X117144329Y-82447135D01*
X117146000Y-82439452D01*
X117146000Y-81554615D01*
X117144659Y-81550048D01*
X117654000Y-81550048D01*
X117654000Y-82434885D01*
X117658475Y-82450124D01*
X117659865Y-82451329D01*
X117667548Y-82453000D01*
X118089223Y-82453000D01*
X118096524Y-82452576D01*
X118218255Y-82438383D01*
X118232410Y-82435037D01*
X118382195Y-82380668D01*
X118453053Y-82376227D01*
X118515063Y-82410800D01*
X118548538Y-82473409D01*
X118545777Y-82535630D01*
X118500932Y-82683700D01*
X118498484Y-82696323D01*
X118492249Y-82766184D01*
X118492000Y-82771779D01*
X118492000Y-82965385D01*
X118496475Y-82980624D01*
X118497865Y-82981829D01*
X118505548Y-82983500D01*
X119627885Y-82983500D01*
X119643124Y-82979025D01*
X119644329Y-82977635D01*
X119646000Y-82969952D01*
X119646000Y-81554615D01*
X119644659Y-81550048D01*
X120154000Y-81550048D01*
X120154000Y-82965385D01*
X120158475Y-82980624D01*
X120159865Y-82981829D01*
X120167548Y-82983500D01*
X121289885Y-82983500D01*
X121305124Y-82979025D01*
X121306329Y-82977635D01*
X121308000Y-82969952D01*
X121308000Y-82785777D01*
X121307576Y-82778476D01*
X121293382Y-82656740D01*
X121291275Y-82647824D01*
X121295071Y-82576929D01*
X121336593Y-82519341D01*
X121402659Y-82493343D01*
X121477182Y-82509887D01*
X121539429Y-82546043D01*
X121552754Y-82551837D01*
X121708700Y-82599068D01*
X121721323Y-82601516D01*
X121791184Y-82607751D01*
X121796779Y-82608000D01*
X122227885Y-82608000D01*
X122243124Y-82603525D01*
X122244329Y-82602135D01*
X122246000Y-82594452D01*
X122246000Y-81709615D01*
X122244659Y-81705048D01*
X122754000Y-81705048D01*
X122754000Y-82589885D01*
X122758475Y-82605124D01*
X122759865Y-82606329D01*
X122767548Y-82608000D01*
X123189223Y-82608000D01*
X123196524Y-82607576D01*
X123318255Y-82593383D01*
X123332410Y-82590037D01*
X123484761Y-82534737D01*
X123497760Y-82528227D01*
X123633306Y-82439359D01*
X123644458Y-82430035D01*
X123755922Y-82312371D01*
X123764635Y-82300724D01*
X123846043Y-82160571D01*
X123851841Y-82147238D01*
X123865410Y-82102435D01*
X123904299Y-82043037D01*
X123969128Y-82014093D01*
X124039313Y-82024793D01*
X124092572Y-82071739D01*
X124102688Y-82106738D01*
X124106896Y-82105502D01*
X124116475Y-82138124D01*
X124117865Y-82139329D01*
X124125548Y-82141000D01*
X125127885Y-82141000D01*
X125143124Y-82136525D01*
X125144329Y-82135135D01*
X125146000Y-82127452D01*
X125146000Y-81600115D01*
X125141525Y-81584876D01*
X125140135Y-81583671D01*
X125132452Y-81582000D01*
X124627257Y-81582000D01*
X124622750Y-81582161D01*
X124558731Y-81586740D01*
X124545509Y-81589126D01*
X124420542Y-81625819D01*
X124404308Y-81633233D01*
X124296640Y-81702426D01*
X124283153Y-81714112D01*
X124199338Y-81810840D01*
X124189691Y-81825851D01*
X124148613Y-81915800D01*
X124102120Y-81969455D01*
X124034000Y-81989457D01*
X123965879Y-81969455D01*
X123919386Y-81915799D01*
X123908000Y-81863457D01*
X123908000Y-81709615D01*
X123903525Y-81694376D01*
X123902135Y-81693171D01*
X123894452Y-81691500D01*
X122772115Y-81691500D01*
X122756876Y-81695975D01*
X122755671Y-81697365D01*
X122754000Y-81705048D01*
X122244659Y-81705048D01*
X122241525Y-81694376D01*
X122240135Y-81693171D01*
X122232452Y-81691500D01*
X121178000Y-81691500D01*
X121109879Y-81671498D01*
X121063386Y-81617842D01*
X121052000Y-81565500D01*
X121052000Y-81554615D01*
X121047525Y-81539376D01*
X121046135Y-81538171D01*
X121038452Y-81536500D01*
X120172115Y-81536500D01*
X120156876Y-81540975D01*
X120155671Y-81542365D01*
X120154000Y-81550048D01*
X119644659Y-81550048D01*
X119641525Y-81539376D01*
X119640135Y-81538171D01*
X119632452Y-81536500D01*
X117672115Y-81536500D01*
X117656876Y-81540975D01*
X117655671Y-81542365D01*
X117654000Y-81550048D01*
X117144659Y-81550048D01*
X117141525Y-81539376D01*
X117140135Y-81538171D01*
X117132452Y-81536500D01*
X115172115Y-81536500D01*
X115156876Y-81540975D01*
X115155671Y-81542365D01*
X115154000Y-81550048D01*
X114644659Y-81550048D01*
X114641525Y-81539376D01*
X114640135Y-81538171D01*
X114632452Y-81536500D01*
X112672115Y-81536500D01*
X112656876Y-81540975D01*
X112655671Y-81542365D01*
X112654000Y-81550048D01*
X112144659Y-81550048D01*
X112141525Y-81539376D01*
X112140135Y-81538171D01*
X112132452Y-81536500D01*
X111010115Y-81536500D01*
X110994876Y-81540975D01*
X110993671Y-81542365D01*
X110992000Y-81550048D01*
X100508000Y-81550048D01*
X100508000Y-80816779D01*
X110992000Y-80816779D01*
X110992000Y-81010385D01*
X110996475Y-81025624D01*
X110997865Y-81026829D01*
X111005548Y-81028500D01*
X112127885Y-81028500D01*
X112143124Y-81024025D01*
X112144329Y-81022635D01*
X112146000Y-81014952D01*
X112146000Y-80130115D01*
X112144659Y-80125548D01*
X112654000Y-80125548D01*
X112654000Y-81010385D01*
X112658475Y-81025624D01*
X112659865Y-81026829D01*
X112667548Y-81028500D01*
X114627885Y-81028500D01*
X114643124Y-81024025D01*
X114644329Y-81022635D01*
X114646000Y-81014952D01*
X114646000Y-80130115D01*
X114644659Y-80125548D01*
X115154000Y-80125548D01*
X115154000Y-81010385D01*
X115158475Y-81025624D01*
X115159865Y-81026829D01*
X115167548Y-81028500D01*
X117127885Y-81028500D01*
X117143124Y-81024025D01*
X117144329Y-81022635D01*
X117146000Y-81014952D01*
X117146000Y-80130115D01*
X117144659Y-80125548D01*
X117654000Y-80125548D01*
X117654000Y-81010385D01*
X117658475Y-81025624D01*
X117659865Y-81026829D01*
X117667548Y-81028500D01*
X119627885Y-81028500D01*
X119643124Y-81024025D01*
X119644329Y-81022635D01*
X119646000Y-81014952D01*
X119646000Y-80130115D01*
X119644659Y-80125548D01*
X120154000Y-80125548D01*
X120154000Y-81010385D01*
X120158475Y-81025624D01*
X120159865Y-81026829D01*
X120167548Y-81028500D01*
X121222000Y-81028500D01*
X121290121Y-81048502D01*
X121336614Y-81102158D01*
X121348000Y-81154500D01*
X121348000Y-81165385D01*
X121352475Y-81180624D01*
X121353865Y-81181829D01*
X121361548Y-81183500D01*
X122227885Y-81183500D01*
X122243124Y-81179025D01*
X122244329Y-81177635D01*
X122246000Y-81169952D01*
X122246000Y-80285115D01*
X122244659Y-80280548D01*
X122754000Y-80280548D01*
X122754000Y-81165385D01*
X122758475Y-81180624D01*
X122759865Y-81181829D01*
X122767548Y-81183500D01*
X123889885Y-81183500D01*
X123905124Y-81179025D01*
X123906329Y-81177635D01*
X123908000Y-81169952D01*
X123908000Y-80985777D01*
X123907576Y-80978476D01*
X123893383Y-80856745D01*
X123890037Y-80842590D01*
X123834737Y-80690239D01*
X123828227Y-80677240D01*
X123739359Y-80541694D01*
X123730035Y-80530542D01*
X123612371Y-80419078D01*
X123600724Y-80410365D01*
X123460571Y-80328957D01*
X123447246Y-80323163D01*
X123291300Y-80275932D01*
X123278677Y-80273484D01*
X123208816Y-80267249D01*
X123203221Y-80267000D01*
X122772115Y-80267000D01*
X122756876Y-80271475D01*
X122755671Y-80272865D01*
X122754000Y-80280548D01*
X122244659Y-80280548D01*
X122241525Y-80269876D01*
X122240135Y-80268671D01*
X122232452Y-80267000D01*
X121810777Y-80267000D01*
X121803476Y-80267424D01*
X121681745Y-80281617D01*
X121667590Y-80284963D01*
X121515239Y-80340263D01*
X121502240Y-80346773D01*
X121366694Y-80435641D01*
X121349923Y-80449663D01*
X121347964Y-80447320D01*
X121298488Y-80476085D01*
X121227562Y-80472921D01*
X121169606Y-80431915D01*
X121163041Y-80422813D01*
X121139361Y-80386696D01*
X121130035Y-80375542D01*
X121012371Y-80264078D01*
X121000724Y-80255365D01*
X120860571Y-80173957D01*
X120847246Y-80168163D01*
X120691300Y-80120932D01*
X120678677Y-80118484D01*
X120608816Y-80112249D01*
X120603221Y-80112000D01*
X120172115Y-80112000D01*
X120156876Y-80116475D01*
X120155671Y-80117865D01*
X120154000Y-80125548D01*
X119644659Y-80125548D01*
X119641525Y-80114876D01*
X119640135Y-80113671D01*
X119632452Y-80112000D01*
X119210777Y-80112000D01*
X119203476Y-80112424D01*
X119081745Y-80126617D01*
X119067590Y-80129963D01*
X118915239Y-80185263D01*
X118902240Y-80191773D01*
X118766694Y-80280641D01*
X118755542Y-80289965D01*
X118740108Y-80306257D01*
X118678739Y-80341954D01*
X118607812Y-80338806D01*
X118561983Y-80311076D01*
X118512371Y-80264078D01*
X118500724Y-80255365D01*
X118360571Y-80173957D01*
X118347246Y-80168163D01*
X118191300Y-80120932D01*
X118178677Y-80118484D01*
X118108816Y-80112249D01*
X118103221Y-80112000D01*
X117672115Y-80112000D01*
X117656876Y-80116475D01*
X117655671Y-80117865D01*
X117654000Y-80125548D01*
X117144659Y-80125548D01*
X117141525Y-80114876D01*
X117140135Y-80113671D01*
X117132452Y-80112000D01*
X116710777Y-80112000D01*
X116703476Y-80112424D01*
X116581745Y-80126617D01*
X116567590Y-80129963D01*
X116415239Y-80185263D01*
X116402240Y-80191773D01*
X116266694Y-80280641D01*
X116255542Y-80289965D01*
X116240108Y-80306257D01*
X116178739Y-80341954D01*
X116107812Y-80338806D01*
X116061983Y-80311076D01*
X116012371Y-80264078D01*
X116000724Y-80255365D01*
X115860571Y-80173957D01*
X115847246Y-80168163D01*
X115691300Y-80120932D01*
X115678677Y-80118484D01*
X115608816Y-80112249D01*
X115603221Y-80112000D01*
X115172115Y-80112000D01*
X115156876Y-80116475D01*
X115155671Y-80117865D01*
X115154000Y-80125548D01*
X114644659Y-80125548D01*
X114641525Y-80114876D01*
X114640135Y-80113671D01*
X114632452Y-80112000D01*
X114210777Y-80112000D01*
X114203476Y-80112424D01*
X114081745Y-80126617D01*
X114067590Y-80129963D01*
X113915239Y-80185263D01*
X113902240Y-80191773D01*
X113766694Y-80280641D01*
X113755542Y-80289965D01*
X113740108Y-80306257D01*
X113678739Y-80341954D01*
X113607812Y-80338806D01*
X113561983Y-80311076D01*
X113512371Y-80264078D01*
X113500724Y-80255365D01*
X113360571Y-80173957D01*
X113347246Y-80168163D01*
X113191300Y-80120932D01*
X113178677Y-80118484D01*
X113108816Y-80112249D01*
X113103221Y-80112000D01*
X112672115Y-80112000D01*
X112656876Y-80116475D01*
X112655671Y-80117865D01*
X112654000Y-80125548D01*
X112144659Y-80125548D01*
X112141525Y-80114876D01*
X112140135Y-80113671D01*
X112132452Y-80112000D01*
X111710777Y-80112000D01*
X111703476Y-80112424D01*
X111581745Y-80126617D01*
X111567590Y-80129963D01*
X111415239Y-80185263D01*
X111402240Y-80191773D01*
X111266694Y-80280641D01*
X111255542Y-80289965D01*
X111144078Y-80407629D01*
X111135365Y-80419276D01*
X111053957Y-80559429D01*
X111048163Y-80572754D01*
X111000932Y-80728700D01*
X110998484Y-80741323D01*
X110992249Y-80811184D01*
X110992000Y-80816779D01*
X100508000Y-80816779D01*
X100508000Y-77688978D01*
X110991500Y-77688978D01*
X110991500Y-78612886D01*
X111006978Y-78745643D01*
X111067313Y-78911864D01*
X111135214Y-79015431D01*
X111152105Y-79041193D01*
X111164269Y-79059747D01*
X111292645Y-79181358D01*
X111445555Y-79270175D01*
X111614796Y-79321433D01*
X111621236Y-79322008D01*
X111621237Y-79322008D01*
X111691185Y-79328251D01*
X111691191Y-79328251D01*
X111693978Y-79328500D01*
X111914478Y-79328500D01*
X111961473Y-79337593D01*
X112034808Y-79367073D01*
X112086424Y-79377762D01*
X112250251Y-79411689D01*
X112250255Y-79411689D01*
X112254777Y-79412626D01*
X112259390Y-79412892D01*
X112311467Y-79415895D01*
X112311469Y-79415895D01*
X112313289Y-79416000D01*
X113345269Y-79416000D01*
X113354493Y-79416338D01*
X113359427Y-79416700D01*
X113364964Y-79417607D01*
X113370577Y-79417519D01*
X113370579Y-79417519D01*
X113466226Y-79416016D01*
X113468205Y-79416000D01*
X120871769Y-79416000D01*
X120888216Y-79417078D01*
X120904020Y-79419159D01*
X120904024Y-79419159D01*
X120909590Y-79419892D01*
X120989150Y-79416140D01*
X120995085Y-79416000D01*
X121018524Y-79416000D01*
X121021308Y-79415751D01*
X121021319Y-79415751D01*
X121045486Y-79413594D01*
X121050750Y-79413235D01*
X121099900Y-79410917D01*
X121133977Y-79409310D01*
X121139444Y-79408058D01*
X121151461Y-79405306D01*
X121168381Y-79402626D01*
X121180661Y-79401530D01*
X121180665Y-79401529D01*
X121186247Y-79401031D01*
X121191658Y-79399551D01*
X121191662Y-79399550D01*
X121266606Y-79379048D01*
X121271723Y-79377762D01*
X121318393Y-79367073D01*
X121352943Y-79359160D01*
X121358101Y-79356960D01*
X121358104Y-79356959D01*
X121369437Y-79352125D01*
X121385617Y-79346490D01*
X121402921Y-79341756D01*
X121417823Y-79334648D01*
X121478135Y-79305882D01*
X121482943Y-79303711D01*
X121554408Y-79273228D01*
X121559568Y-79271027D01*
X121574554Y-79261183D01*
X121589483Y-79252771D01*
X121605674Y-79245048D01*
X121673348Y-79196419D01*
X121677691Y-79193434D01*
X121743456Y-79150235D01*
X121743464Y-79150229D01*
X121747320Y-79147696D01*
X121768107Y-79129176D01*
X121778386Y-79120940D01*
X121788097Y-79113963D01*
X121791998Y-79109937D01*
X121792002Y-79109934D01*
X121858616Y-79041193D01*
X121860005Y-79039783D01*
X123549383Y-77350405D01*
X123611695Y-77316379D01*
X123638478Y-77313500D01*
X124400000Y-77313500D01*
X124473079Y-77308273D01*
X124561430Y-77282331D01*
X124604670Y-77269635D01*
X124604672Y-77269634D01*
X124613316Y-77267096D01*
X124693691Y-77215442D01*
X124728691Y-77192949D01*
X124728694Y-77192947D01*
X124736271Y-77188077D01*
X124758954Y-77161900D01*
X124826082Y-77084431D01*
X124826084Y-77084428D01*
X124831984Y-77077619D01*
X124892700Y-76944670D01*
X124903962Y-76866340D01*
X124912861Y-76804448D01*
X124912862Y-76804441D01*
X124913500Y-76800000D01*
X124913500Y-73200000D01*
X124908273Y-73126921D01*
X124867096Y-72986684D01*
X124821393Y-72915569D01*
X124792949Y-72871309D01*
X124792947Y-72871306D01*
X124788077Y-72863729D01*
X124781267Y-72857828D01*
X124684431Y-72773918D01*
X124684428Y-72773916D01*
X124677619Y-72768016D01*
X124544670Y-72707300D01*
X124535755Y-72706018D01*
X124535754Y-72706018D01*
X124404448Y-72687139D01*
X124404441Y-72687138D01*
X124400000Y-72686500D01*
X122600000Y-72686500D01*
X122526921Y-72691727D01*
X122473884Y-72707300D01*
X122395330Y-72730365D01*
X122395328Y-72730366D01*
X122386684Y-72732904D01*
X122379105Y-72737775D01*
X122271309Y-72807051D01*
X122271306Y-72807053D01*
X122263729Y-72811923D01*
X122257828Y-72818733D01*
X122173918Y-72915569D01*
X122173916Y-72915572D01*
X122168016Y-72922381D01*
X122107300Y-73055330D01*
X122106018Y-73064245D01*
X122106018Y-73064246D01*
X122087139Y-73195552D01*
X122087138Y-73195559D01*
X122086500Y-73200000D01*
X122086500Y-75201522D01*
X122066498Y-75269643D01*
X122049595Y-75290617D01*
X120478117Y-76862095D01*
X120415805Y-76896121D01*
X120389022Y-76899000D01*
X114349500Y-76899000D01*
X114281379Y-76878998D01*
X114234886Y-76825342D01*
X114223500Y-76773000D01*
X114223500Y-66050269D01*
X114243502Y-65982148D01*
X114254768Y-65967192D01*
X114410244Y-65789905D01*
X114413325Y-65786392D01*
X114436604Y-65750202D01*
X114556207Y-65564257D01*
X114558735Y-65560327D01*
X114669133Y-65315254D01*
X114707381Y-65179637D01*
X114721745Y-65128702D01*
X114742093Y-65056554D01*
X114754052Y-64962548D01*
X116232000Y-64962548D01*
X116232000Y-65992743D01*
X116232161Y-65997250D01*
X116236740Y-66061269D01*
X116239126Y-66074491D01*
X116275819Y-66199458D01*
X116283233Y-66215692D01*
X116352426Y-66323360D01*
X116364112Y-66336847D01*
X116460840Y-66420662D01*
X116475848Y-66430307D01*
X116592275Y-66483477D01*
X116609388Y-66488502D01*
X116740554Y-66507361D01*
X116749495Y-66508000D01*
X117772885Y-66508000D01*
X117788124Y-66503525D01*
X117789329Y-66502135D01*
X117791000Y-66494452D01*
X117791000Y-64967115D01*
X117789659Y-64962548D01*
X118299000Y-64962548D01*
X118299000Y-66489885D01*
X118303475Y-66505124D01*
X118304865Y-66506329D01*
X118312548Y-66508000D01*
X119342743Y-66508000D01*
X119347250Y-66507839D01*
X119411269Y-66503260D01*
X119424491Y-66500874D01*
X119549458Y-66464181D01*
X119565692Y-66456767D01*
X119673360Y-66387574D01*
X119686847Y-66375888D01*
X119770662Y-66279160D01*
X119780307Y-66264152D01*
X119833477Y-66147725D01*
X119838502Y-66130612D01*
X119857361Y-65999446D01*
X119858000Y-65990503D01*
X119858000Y-64967115D01*
X119853525Y-64951876D01*
X119852135Y-64950671D01*
X119844452Y-64949000D01*
X118317115Y-64949000D01*
X118301876Y-64953475D01*
X118300671Y-64954865D01*
X118299000Y-64962548D01*
X117789659Y-64962548D01*
X117786525Y-64951876D01*
X117785135Y-64950671D01*
X117777452Y-64949000D01*
X116250115Y-64949000D01*
X116234876Y-64953475D01*
X116233671Y-64954865D01*
X116232000Y-64962548D01*
X114754052Y-64962548D01*
X114764578Y-64879809D01*
X114775617Y-64793041D01*
X114775617Y-64793037D01*
X114776015Y-64789911D01*
X114778500Y-64695000D01*
X114774626Y-64642874D01*
X114758926Y-64431600D01*
X114758925Y-64431596D01*
X114758580Y-64426948D01*
X114699259Y-64164784D01*
X114601838Y-63914268D01*
X114599520Y-63910212D01*
X114470779Y-63684961D01*
X114470777Y-63684959D01*
X114468460Y-63680904D01*
X114302052Y-63469817D01*
X114227298Y-63399495D01*
X116232000Y-63399495D01*
X116232000Y-64422885D01*
X116236475Y-64438124D01*
X116237865Y-64439329D01*
X116245548Y-64441000D01*
X117772885Y-64441000D01*
X117788124Y-64436525D01*
X117789329Y-64435135D01*
X117791000Y-64427452D01*
X117791000Y-62900115D01*
X117789659Y-62895548D01*
X118299000Y-62895548D01*
X118299000Y-64422885D01*
X118303475Y-64438124D01*
X118304865Y-64439329D01*
X118312548Y-64441000D01*
X119839885Y-64441000D01*
X119855124Y-64436525D01*
X119856329Y-64435135D01*
X119858000Y-64427452D01*
X119858000Y-63977868D01*
X132886616Y-63977868D01*
X132903166Y-64264892D01*
X132903991Y-64269097D01*
X132903992Y-64269105D01*
X132934163Y-64422885D01*
X132958516Y-64547014D01*
X132959903Y-64551065D01*
X133010265Y-64698160D01*
X133051642Y-64819014D01*
X133053568Y-64822843D01*
X133171113Y-65056554D01*
X133180822Y-65075859D01*
X133343664Y-65312796D01*
X133537155Y-65525440D01*
X133757716Y-65709857D01*
X133761357Y-65712141D01*
X133997624Y-65860352D01*
X133997628Y-65860354D01*
X134001264Y-65862635D01*
X134263293Y-65980945D01*
X134324738Y-65999146D01*
X134534841Y-66061382D01*
X134534846Y-66061383D01*
X134538954Y-66062600D01*
X134543188Y-66063248D01*
X134543193Y-66063249D01*
X134796037Y-66101940D01*
X134823147Y-66106088D01*
X134969498Y-66108387D01*
X135106321Y-66110537D01*
X135106327Y-66110537D01*
X135110612Y-66110604D01*
X135114864Y-66110089D01*
X135114872Y-66110089D01*
X135336529Y-66083265D01*
X135396030Y-66076064D01*
X135400179Y-66074976D01*
X135400182Y-66074975D01*
X135669970Y-66004198D01*
X135674121Y-66003109D01*
X135939736Y-65893087D01*
X135988827Y-65864401D01*
X136184255Y-65750202D01*
X136184257Y-65750200D01*
X136187963Y-65748035D01*
X136414208Y-65570637D01*
X136428329Y-65556066D01*
X136611300Y-65367253D01*
X136614283Y-65364175D01*
X136616816Y-65360727D01*
X136616820Y-65360722D01*
X136781949Y-65135925D01*
X136784487Y-65132470D01*
X136815224Y-65075859D01*
X136919621Y-64883585D01*
X136919622Y-64883583D01*
X136921671Y-64879809D01*
X136972483Y-64745339D01*
X137021777Y-64614887D01*
X137021778Y-64614883D01*
X137023295Y-64610869D01*
X137062200Y-64441000D01*
X137086521Y-64334808D01*
X137086522Y-64334804D01*
X137087479Y-64330624D01*
X137092970Y-64269105D01*
X137112816Y-64046728D01*
X137112816Y-64046726D01*
X137113036Y-64044262D01*
X137113500Y-64000000D01*
X137111700Y-63973597D01*
X137094238Y-63717442D01*
X137094237Y-63717436D01*
X137093946Y-63713165D01*
X137089409Y-63691254D01*
X137044310Y-63473485D01*
X137035644Y-63431638D01*
X136939674Y-63160628D01*
X136807812Y-62905150D01*
X136642498Y-62669931D01*
X136639573Y-62666783D01*
X136449711Y-62462468D01*
X136449708Y-62462466D01*
X136446790Y-62459325D01*
X136443474Y-62456611D01*
X136443471Y-62456608D01*
X136227629Y-62279942D01*
X136227622Y-62279937D01*
X136224311Y-62277227D01*
X135979176Y-62127009D01*
X135975240Y-62125281D01*
X135719851Y-62013172D01*
X135719847Y-62013171D01*
X135715923Y-62011448D01*
X135439421Y-61932685D01*
X135228794Y-61902708D01*
X135159041Y-61892781D01*
X135159039Y-61892781D01*
X135154789Y-61892176D01*
X135003976Y-61891387D01*
X134871579Y-61890693D01*
X134871573Y-61890693D01*
X134867292Y-61890671D01*
X134863048Y-61891230D01*
X134863044Y-61891230D01*
X134737864Y-61907710D01*
X134582251Y-61928197D01*
X134578111Y-61929330D01*
X134578109Y-61929330D01*
X134561547Y-61933861D01*
X134304940Y-62004061D01*
X134283580Y-62013172D01*
X134044433Y-62115176D01*
X134044426Y-62115180D01*
X134040491Y-62116858D01*
X134036810Y-62119061D01*
X133797479Y-62262297D01*
X133797475Y-62262300D01*
X133793797Y-62264501D01*
X133790454Y-62267179D01*
X133790450Y-62267182D01*
X133680922Y-62354931D01*
X133569423Y-62444259D01*
X133566479Y-62447361D01*
X133566475Y-62447365D01*
X133552143Y-62462468D01*
X133371520Y-62652804D01*
X133203752Y-62886279D01*
X133069222Y-63140362D01*
X132970419Y-63410352D01*
X132909173Y-63691254D01*
X132908837Y-63695524D01*
X132894973Y-63871688D01*
X132886616Y-63977868D01*
X119858000Y-63977868D01*
X119858000Y-63397257D01*
X119857839Y-63392750D01*
X119853260Y-63328731D01*
X119850874Y-63315509D01*
X119814181Y-63190542D01*
X119806767Y-63174308D01*
X119737574Y-63066640D01*
X119725888Y-63053153D01*
X119629160Y-62969338D01*
X119614152Y-62959693D01*
X119497725Y-62906523D01*
X119480612Y-62901498D01*
X119349446Y-62882639D01*
X119340505Y-62882000D01*
X118317115Y-62882000D01*
X118301876Y-62886475D01*
X118300671Y-62887865D01*
X118299000Y-62895548D01*
X117789659Y-62895548D01*
X117786525Y-62884876D01*
X117785135Y-62883671D01*
X117777452Y-62882000D01*
X116747257Y-62882000D01*
X116742750Y-62882161D01*
X116678731Y-62886740D01*
X116665509Y-62889126D01*
X116540542Y-62925819D01*
X116524308Y-62933233D01*
X116416640Y-63002426D01*
X116403153Y-63014112D01*
X116319338Y-63110840D01*
X116309693Y-63125848D01*
X116256523Y-63242275D01*
X116251498Y-63259388D01*
X116232639Y-63390554D01*
X116232000Y-63399495D01*
X114227298Y-63399495D01*
X114106273Y-63285646D01*
X113885421Y-63132436D01*
X113724652Y-63053153D01*
X113648535Y-63015616D01*
X113648531Y-63015615D01*
X113644349Y-63013552D01*
X113388353Y-62931607D01*
X113225900Y-62905150D01*
X113127669Y-62889152D01*
X113127668Y-62889152D01*
X113123057Y-62888401D01*
X112988673Y-62886642D01*
X112858965Y-62884944D01*
X112858962Y-62884944D01*
X112854288Y-62884883D01*
X112587952Y-62921129D01*
X112583462Y-62922438D01*
X112583456Y-62922439D01*
X112473555Y-62954473D01*
X112329899Y-62996345D01*
X112325652Y-62998303D01*
X112325649Y-62998304D01*
X112292574Y-63013552D01*
X112085798Y-63108877D01*
X112081889Y-63111440D01*
X111864924Y-63253688D01*
X111864919Y-63253692D01*
X111861011Y-63256254D01*
X111857519Y-63259371D01*
X111669034Y-63427600D01*
X111660477Y-63435237D01*
X111488602Y-63641895D01*
X111349160Y-63871688D01*
X111347351Y-63876002D01*
X111347350Y-63876004D01*
X111276794Y-64044262D01*
X111245215Y-64119568D01*
X111244064Y-64124100D01*
X111244063Y-64124103D01*
X111232574Y-64169341D01*
X111179051Y-64380089D01*
X111152121Y-64647528D01*
X111165018Y-64916010D01*
X111165931Y-64920600D01*
X111207325Y-65128702D01*
X111217456Y-65179637D01*
X111219035Y-65184035D01*
X111219037Y-65184042D01*
X111267680Y-65319522D01*
X111308285Y-65432617D01*
X111435510Y-65669393D01*
X111438301Y-65673130D01*
X111438305Y-65673137D01*
X111519944Y-65782464D01*
X111596334Y-65884763D01*
X111599643Y-65888043D01*
X111599648Y-65888049D01*
X111669206Y-65957002D01*
X111703503Y-66019165D01*
X111706500Y-66046485D01*
X111706500Y-76874409D01*
X111686498Y-76942530D01*
X111632842Y-76989023D01*
X111595096Y-76999560D01*
X111574357Y-77001978D01*
X111567479Y-77004474D01*
X111567477Y-77004475D01*
X111522241Y-77020895D01*
X111408136Y-77062313D01*
X111260253Y-77159269D01*
X111138642Y-77287645D01*
X111049825Y-77440555D01*
X110998567Y-77609796D01*
X110991500Y-77688978D01*
X100508000Y-77688978D01*
X100508000Y-63977868D01*
X102386616Y-63977868D01*
X102403166Y-64264892D01*
X102403991Y-64269097D01*
X102403992Y-64269105D01*
X102434163Y-64422885D01*
X102458516Y-64547014D01*
X102459903Y-64551065D01*
X102510265Y-64698160D01*
X102551642Y-64819014D01*
X102553568Y-64822843D01*
X102671113Y-65056554D01*
X102680822Y-65075859D01*
X102843664Y-65312796D01*
X103037155Y-65525440D01*
X103257716Y-65709857D01*
X103261357Y-65712141D01*
X103497624Y-65860352D01*
X103497628Y-65860354D01*
X103501264Y-65862635D01*
X103763293Y-65980945D01*
X103824738Y-65999146D01*
X104034841Y-66061382D01*
X104034846Y-66061383D01*
X104038954Y-66062600D01*
X104043188Y-66063248D01*
X104043193Y-66063249D01*
X104296037Y-66101940D01*
X104323147Y-66106088D01*
X104469498Y-66108387D01*
X104606321Y-66110537D01*
X104606327Y-66110537D01*
X104610612Y-66110604D01*
X104614864Y-66110089D01*
X104614872Y-66110089D01*
X104836529Y-66083265D01*
X104896030Y-66076064D01*
X104900179Y-66074976D01*
X104900182Y-66074975D01*
X105169970Y-66004198D01*
X105174121Y-66003109D01*
X105439736Y-65893087D01*
X105488827Y-65864401D01*
X105684255Y-65750202D01*
X105684257Y-65750200D01*
X105687963Y-65748035D01*
X105914208Y-65570637D01*
X105928329Y-65556066D01*
X106111300Y-65367253D01*
X106114283Y-65364175D01*
X106116816Y-65360727D01*
X106116820Y-65360722D01*
X106281949Y-65135925D01*
X106284487Y-65132470D01*
X106315224Y-65075859D01*
X106419621Y-64883585D01*
X106419622Y-64883583D01*
X106421671Y-64879809D01*
X106472483Y-64745339D01*
X106521777Y-64614887D01*
X106521778Y-64614883D01*
X106523295Y-64610869D01*
X106562200Y-64441000D01*
X106586521Y-64334808D01*
X106586522Y-64334804D01*
X106587479Y-64330624D01*
X106592970Y-64269105D01*
X106612816Y-64046728D01*
X106612816Y-64046726D01*
X106613036Y-64044262D01*
X106613500Y-64000000D01*
X106611700Y-63973597D01*
X106594238Y-63717442D01*
X106594237Y-63717436D01*
X106593946Y-63713165D01*
X106589409Y-63691254D01*
X106544310Y-63473485D01*
X106535644Y-63431638D01*
X106439674Y-63160628D01*
X106307812Y-62905150D01*
X106142498Y-62669931D01*
X106139573Y-62666783D01*
X105949711Y-62462468D01*
X105949708Y-62462466D01*
X105946790Y-62459325D01*
X105943474Y-62456611D01*
X105943471Y-62456608D01*
X105727629Y-62279942D01*
X105727622Y-62279937D01*
X105724311Y-62277227D01*
X105479176Y-62127009D01*
X105475240Y-62125281D01*
X105219851Y-62013172D01*
X105219847Y-62013171D01*
X105215923Y-62011448D01*
X104939421Y-61932685D01*
X104728794Y-61902708D01*
X104659041Y-61892781D01*
X104659039Y-61892781D01*
X104654789Y-61892176D01*
X104503976Y-61891387D01*
X104371579Y-61890693D01*
X104371573Y-61890693D01*
X104367292Y-61890671D01*
X104363048Y-61891230D01*
X104363044Y-61891230D01*
X104237864Y-61907710D01*
X104082251Y-61928197D01*
X104078111Y-61929330D01*
X104078109Y-61929330D01*
X104061547Y-61933861D01*
X103804940Y-62004061D01*
X103783580Y-62013172D01*
X103544433Y-62115176D01*
X103544426Y-62115180D01*
X103540491Y-62116858D01*
X103536810Y-62119061D01*
X103297479Y-62262297D01*
X103297475Y-62262300D01*
X103293797Y-62264501D01*
X103290454Y-62267179D01*
X103290450Y-62267182D01*
X103180922Y-62354931D01*
X103069423Y-62444259D01*
X103066479Y-62447361D01*
X103066475Y-62447365D01*
X103052143Y-62462468D01*
X102871520Y-62652804D01*
X102703752Y-62886279D01*
X102569222Y-63140362D01*
X102470419Y-63410352D01*
X102409173Y-63691254D01*
X102408837Y-63695524D01*
X102394973Y-63871688D01*
X102386616Y-63977868D01*
X100508000Y-63977868D01*
X100508000Y-60634000D01*
X100528002Y-60565879D01*
X100581658Y-60519386D01*
X100634000Y-60508000D01*
X139366000Y-60508000D01*
X139434121Y-60528002D01*
G37*
%TD.AperFunction*%
%TD*%
M02*
